<svg id="svg" version="1.1" xmlns="http://www.w3.org/2000/svg" xmlns:xlink="http://www.w3.org/1999/xlink" width="400" height="400" viewBox="0, 0, 400,400"><g id="svgg"><path id="path0" d="M46.000 283.600 C 39.498 284.805,35.976 287.493,34.205 292.600 C 33.595 294.360,32.320 297.510,31.371 299.600 C 21.630 321.074,32.286 343.598,56.361 352.421 C 60.043 353.770,60.834 353.934,62.018 353.595 C 62.775 353.378,64.488 353.200,65.825 353.200 C 69.112 353.200,71.391 352.457,77.669 349.341 C 94.287 341.090,102.988 329.675,101.890 317.566 C 101.626 314.649,101.653 314.684,100.055 315.241 C 97.688 316.066,94.171 314.399,85.142 308.171 C 83.524 307.055,81.500 305.660,80.644 305.071 C 79.723 304.437,78.546 304.000,77.759 304.000 C 75.415 304.000,70.644 302.199,67.601 300.165 C 65.984 299.084,64.017 297.773,63.231 297.252 C 60.297 295.308,56.625 291.061,53.242 285.700 C 52.278 284.172,51.669 283.600,51.008 283.600 C 50.509 283.600,49.583 283.525,48.950 283.433 C 48.318 283.341,46.990 283.416,46.000 283.600 M328.575 285.236 C 326.770 287.840,324.388 289.677,319.556 292.187 C 315.571 294.257,314.554 295.021,310.762 298.784 C 305.008 304.496,303.288 305.493,294.780 308.040 C 286.176 310.617,282.922 311.318,275.566 312.184 C 266.078 313.301,266.930 312.966,264.306 316.612 C 255.924 328.260,254.360 346.869,260.936 356.709 L 262.200 358.600 269.800 358.726 C 288.203 359.029,307.244 356.636,314.088 353.159 C 316.851 351.755,322.339 347.711,326.000 344.382 C 328.479 342.127,330.399 340.803,333.090 339.490 C 339.097 336.560,350.058 328.081,351.625 325.153 C 352.903 322.766,353.514 312.332,352.622 308.126 C 350.576 298.471,348.390 294.953,340.506 288.626 C 333.904 283.329,330.556 282.377,328.575 285.236 M339.812 300.138 C 342.325 303.726,330.741 321.459,316.088 336.455 C 309.507 343.190,308.343 344.019,306.692 343.150 C 303.759 341.605,304.332 340.433,311.745 332.809 C 322.189 322.068,328.609 313.559,333.242 304.316 C 334.819 301.171,335.911 299.459,336.475 299.250 C 337.711 298.793,339.135 299.172,339.812 300.138 M60.869 301.462 C 62.616 303.044,61.588 305.624,53.083 321.000 C 47.969 330.244,47.554 330.800,45.753 330.800 C 42.098 330.800,42.427 328.369,47.243 319.797 C 49.467 315.839,52.516 310.202,54.018 307.271 C 57.577 300.329,58.630 299.436,60.869 301.462 M82.627 308.830 C 84.181 310.547,83.120 313.323,75.229 328.200 C 71.924 334.430,70.721 335.883,69.250 335.416 C 66.313 334.484,66.483 332.353,70.016 325.800 C 72.337 321.496,74.850 316.493,78.148 309.606 C 79.075 307.670,81.239 307.296,82.627 308.830 M318.926 308.060 C 321.037 309.171,320.953 311.067,318.684 313.592 C 316.988 315.477,305.362 331.628,303.658 334.465 C 301.660 337.792,297.252 336.633,298.160 333.019 C 298.452 331.852,302.527 325.754,308.564 317.447 C 315.371 308.081,316.693 306.884,318.926 308.060 M67.745 312.202 C 69.014 313.471,68.900 314.336,66.969 318.108 C 63.639 324.615,59.686 330.747,57.648 332.567 C 55.141 334.806,51.629 331.917,53.492 329.147 C 53.881 328.569,55.141 326.738,56.291 325.079 C 57.441 323.420,59.482 320.023,60.827 317.531 C 63.984 311.677,65.812 310.270,67.745 312.202 M300.022 313.138 C 301.690 314.488,301.265 315.686,296.014 324.419 C 287.498 338.583,284.849 342.000,282.386 342.000 C 279.586 342.000,278.813 339.291,280.930 336.901 C 283.167 334.376,285.693 330.562,290.795 322.000 C 296.797 311.930,297.590 311.168,300.022 313.138 " stroke="none" fill="#e78a3c" fill-rule="evenodd"></path><path id="path1" d="M252.203 161.405 C 251.104 161.714,249.214 162.077,248.003 162.212 C 238.522 163.266,230.031 164.932,217.400 168.215 C 215.420 168.730,211.640 169.618,209.000 170.188 C 206.360 170.759,201.500 171.837,198.200 172.584 C 191.296 174.148,185.384 174.935,183.268 174.573 C 179.328 173.897,176.554 172.951,171.600 170.591 C 167.525 168.649,165.464 167.907,163.200 167.564 C 161.550 167.315,159.554 166.782,158.765 166.380 C 153.756 163.832,140.090 162.022,125.742 162.008 C 113.792 161.997,109.281 162.488,101.600 164.638 C 99.730 165.161,97.564 165.668,96.788 165.765 C 90.783 166.513,75.132 175.859,69.183 182.249 C 61.987 189.979,45.688 220.625,46.585 224.740 C 46.822 225.829,46.024 228.786,43.437 236.400 C 41.946 240.787,37.110 260.303,36.399 264.800 C 36.004 267.299,35.839 270.416,35.415 283.332 L 35.221 289.265 36.532 288.113 C 39.977 285.089,44.005 283.541,48.500 283.514 C 52.049 283.492,52.058 283.481,50.257 281.372 C 45.749 276.094,44.078 264.778,46.729 257.478 C 47.906 254.237,48.696 246.316,48.992 234.800 C 49.295 222.961,49.424 222.412,53.585 215.200 C 55.298 212.230,57.197 208.812,57.805 207.604 C 59.483 204.271,64.251 197.341,65.429 196.524 C 66.004 196.126,68.932 193.305,71.937 190.256 C 77.820 184.286,84.081 179.617,87.297 178.800 C 88.234 178.562,90.170 177.847,91.600 177.211 C 98.387 174.191,102.852 173.612,120.400 173.476 C 129.523 173.405,130.395 173.461,133.016 174.286 C 134.565 174.773,138.152 175.444,140.986 175.775 C 150.345 176.870,165.630 185.971,171.013 193.653 C 172.268 195.444,174.113 197.438,175.473 198.471 C 182.305 203.664,183.687 209.224,182.066 225.000 C 181.772 227.860,181.396 234.160,181.232 239.000 L 180.932 247.800 178.635 257.600 C 172.799 282.500,165.865 295.037,151.458 306.739 C 146.900 310.441,145.768 311.059,141.464 312.200 C 139.229 312.792,135.780 313.789,133.800 314.415 C 130.574 315.435,129.411 315.580,122.600 315.820 C 108.948 316.299,107.161 316.266,105.292 315.500 C 102.015 314.157,101.592 314.391,101.872 317.388 C 103.017 329.647,94.386 341.041,77.669 349.341 C 71.458 352.424,69.108 353.200,65.977 353.200 C 57.370 353.200,61.925 355.399,73.432 356.799 C 101.095 360.164,121.586 360.541,129.400 357.831 C 130.280 357.526,131.540 357.153,132.200 357.004 L 133.400 356.731 132.305 356.155 C 130.251 355.075,130.372 352.449,132.528 351.334 C 135.507 349.793,138.831 350.986,141.189 354.442 C 144.139 358.765,154.638 365.902,160.297 367.431 C 163.930 368.413,174.924 368.647,179.532 367.842 C 188.471 366.279,201.417 359.962,203.915 355.946 C 206.939 351.085,214.438 347.150,217.111 349.023 C 219.085 350.405,217.556 354.000,214.994 354.000 C 214.422 354.000,213.685 354.546,212.970 355.500 C 212.351 356.325,211.609 357.144,211.322 357.320 C 210.356 357.912,210.786 358.351,214.100 360.149 C 218.206 362.378,226.783 363.847,228.716 362.652 C 228.896 362.541,235.784 361.718,244.022 360.824 C 252.260 359.929,259.747 359.100,260.660 358.980 L 262.321 358.763 260.999 356.799 C 254.453 347.071,255.816 328.872,263.972 317.105 L 266.324 313.713 262.662 313.475 C 257.772 313.157,252.795 311.730,247.091 309.009 C 241.295 306.244,237.765 305.314,231.155 304.811 C 228.338 304.597,224.450 304.161,222.516 303.842 C 220.582 303.524,217.457 303.068,215.572 302.830 C 205.189 301.520,189.423 292.120,185.490 284.894 C 183.401 281.056,181.151 270.905,181.257 265.800 C 181.289 264.260,181.286 260.480,181.251 257.400 C 181.127 246.650,182.318 238.040,184.794 231.800 C 188.730 221.880,199.236 202.014,205.773 192.131 C 207.108 190.113,209.634 186.256,211.387 183.560 C 216.187 176.177,220.728 171.814,225.379 170.117 C 227.686 169.276,253.560 168.466,256.796 169.135 C 258.035 169.391,259.995 169.600,261.152 169.600 C 267.664 169.600,282.941 173.380,288.800 176.442 C 295.819 180.109,312.584 195.392,316.711 201.886 C 318.998 205.484,321.684 209.248,324.643 213.000 C 326.961 215.940,331.405 224.495,332.764 228.633 C 334.532 234.015,335.584 244.548,335.623 257.248 L 335.654 267.495 334.573 270.048 C 333.978 271.451,332.967 274.470,332.327 276.757 C 331.686 279.043,330.901 281.419,330.581 282.037 C 329.813 283.521,329.834 283.600,330.985 283.600 C 335.244 283.600,345.795 291.828,349.143 297.760 C 353.043 304.671,354.338 318.241,351.744 325.003 C 351.246 326.300,357.308 320.830,358.733 318.696 C 359.502 317.543,361.032 315.610,362.132 314.400 C 364.230 312.091,366.513 307.800,366.447 306.289 C 366.426 305.800,366.129 302.250,365.786 298.400 C 365.259 292.472,365.234 290.030,365.628 282.458 C 366.122 272.959,365.913 264.307,364.989 256.000 C 364.683 253.250,364.246 248.801,364.017 246.114 C 363.571 240.862,363.016 238.988,359.426 230.600 C 356.881 224.653,355.509 222.275,351.112 216.188 C 349.051 213.334,346.049 209.064,344.441 206.697 C 342.834 204.330,341.132 202.080,340.659 201.697 C 340.187 201.314,339.273 200.280,338.629 199.400 C 337.985 198.520,336.815 197.070,336.029 196.177 C 335.243 195.285,332.710 192.354,330.401 189.663 C 325.104 183.493,326.045 184.122,310.895 176.620 C 307.538 174.957,303.134 172.481,301.108 171.117 C 295.604 167.409,291.384 166.055,281.600 164.854 C 279.730 164.624,275.680 163.705,272.600 162.811 C 267.263 161.262,266.756 161.188,261.800 161.227 C 258.940 161.250,256.060 161.173,255.400 161.056 C 254.740 160.939,253.301 161.096,252.203 161.405 M129.105 180.683 C 129.602 180.779,130.322 180.775,130.705 180.675 C 131.087 180.575,130.680 180.496,129.800 180.501 C 128.920 180.505,128.607 180.587,129.105 180.683 M270.305 225.083 C 270.802 225.179,271.522 225.175,271.905 225.075 C 272.287 224.975,271.880 224.896,271.000 224.901 C 270.120 224.905,269.807 224.987,270.305 225.083 M91.600 245.725 C 91.600 245.794,92.185 246.379,92.900 247.025 L 94.200 248.200 93.025 246.900 C 91.930 245.688,91.600 245.416,91.600 245.725 M61.835 251.354 C 62.156 253.174,64.937 258.644,66.129 259.800 C 66.582 260.240,66.728 260.299,66.454 259.931 C 66.179 259.563,64.965 257.133,63.757 254.531 C 62.241 251.266,61.645 250.281,61.835 251.354 M329.714 257.000 C 329.717 258.100,329.795 258.503,329.887 257.895 C 329.979 257.286,329.977 256.386,329.882 255.895 C 329.787 255.403,329.711 255.900,329.714 257.000 M83.000 263.600 C 83.859 264.480,84.652 265.200,84.762 265.200 C 84.872 265.200,84.259 264.480,83.400 263.600 C 82.541 262.720,81.748 262.000,81.638 262.000 C 81.528 262.000,82.141 262.720,83.000 263.600 M96.175 264.900 L 95.000 266.200 96.300 265.025 C 97.512 263.930,97.784 263.600,97.475 263.600 C 97.406 263.600,96.821 264.185,96.175 264.900 M74.600 270.800 C 75.459 271.680,76.252 272.400,76.362 272.400 C 76.472 272.400,75.859 271.680,75.000 270.800 C 74.141 269.920,73.348 269.200,73.238 269.200 C 73.128 269.200,73.741 269.920,74.600 270.800 M78.348 275.100 C 79.298 276.255,80.358 277.200,80.704 277.200 C 81.050 277.200,81.258 277.143,81.167 277.073 C 81.075 277.003,80.015 276.058,78.811 274.973 L 76.622 273.000 78.348 275.100 M120.471 286.814 C 120.759 287.678,122.782 288.044,125.736 287.768 C 129.419 287.423,128.645 286.865,124.027 286.538 C 120.977 286.321,120.324 286.372,120.471 286.814 M160.457 287.556 C 160.128 287.765,160.071 287.996,160.312 288.146 C 160.531 288.281,160.932 288.123,161.204 287.796 C 161.743 287.145,161.320 287.009,160.457 287.556 M72.880 296.351 C 72.527 296.569,72.693 296.805,73.440 297.146 C 74.752 297.743,75.039 297.540,74.093 296.684 C 73.684 296.314,73.168 296.172,72.880 296.351 M153.172 297.034 C 152.883 297.382,151.858 298.210,150.895 298.872 C 149.932 299.535,149.245 300.178,149.368 300.302 C 149.492 300.425,149.380 300.813,149.119 301.163 C 148.859 301.513,149.850 300.635,151.323 299.212 C 152.795 297.788,154.000 296.573,154.000 296.512 C 154.000 296.234,153.655 296.452,153.172 297.034 M267.043 307.031 C 266.838 307.566,266.966 307.649,267.694 307.454 C 268.192 307.320,269.215 307.208,269.967 307.205 C 271.770 307.198,271.438 306.966,269.149 306.634 C 267.632 306.414,267.253 306.486,267.043 307.031 M97.024 308.987 C 97.451 309.310,98.160 309.574,98.600 309.573 C 99.307 309.572,99.284 309.505,98.400 309.000 C 97.031 308.217,95.993 308.208,97.024 308.987 M123.300 309.876 C 123.685 309.976,124.315 309.976,124.700 309.876 C 125.085 309.775,124.770 309.693,124.000 309.693 C 123.230 309.693,122.915 309.775,123.300 309.876 " stroke="none" fill="#8bf2d2" fill-rule="evenodd"></path><path id="path2" d="M257.246 161.163 C 256.907 161.378,257.451 161.432,258.646 161.304 C 259.721 161.188,260.675 161.028,260.767 160.947 C 261.129 160.628,257.765 160.835,257.246 161.163 M264.500 161.076 C 264.885 161.176,265.515 161.176,265.900 161.076 C 266.285 160.975,265.970 160.893,265.200 160.893 C 264.430 160.893,264.115 160.975,264.500 161.076 M121.900 161.898 C 123.935 161.971,127.265 161.971,129.300 161.898 C 131.335 161.825,129.670 161.766,125.600 161.766 C 121.530 161.766,119.865 161.825,121.900 161.898 M113.505 162.283 C 114.002 162.379,114.722 162.375,115.105 162.275 C 115.487 162.175,115.080 162.096,114.200 162.101 C 113.320 162.105,113.007 162.187,113.505 162.283 M136.305 162.283 C 136.802 162.379,137.522 162.375,137.905 162.275 C 138.287 162.175,137.880 162.096,137.000 162.101 C 136.120 162.105,135.807 162.187,136.305 162.283 M246.500 162.276 C 246.885 162.376,247.515 162.376,247.900 162.276 C 248.285 162.175,247.970 162.093,247.200 162.093 C 246.430 162.093,246.115 162.175,246.500 162.276 M109.300 162.676 C 109.685 162.776,110.315 162.776,110.700 162.676 C 111.085 162.575,110.770 162.493,110.000 162.493 C 109.230 162.493,108.915 162.575,109.300 162.676 M140.900 162.676 C 141.285 162.776,141.915 162.776,142.300 162.676 C 142.685 162.575,142.370 162.493,141.600 162.493 C 140.830 162.493,140.515 162.575,140.900 162.676 M102.600 164.000 C 102.096 164.217,102.022 164.344,102.400 164.344 C 102.730 164.344,103.360 164.189,103.800 164.000 C 104.304 163.783,104.378 163.656,104.000 163.656 C 103.670 163.656,103.040 163.811,102.600 164.000 M282.700 165.082 C 283.195 165.178,284.005 165.178,284.500 165.082 C 284.995 164.987,284.590 164.909,283.600 164.909 C 282.610 164.909,282.205 164.987,282.700 165.082 M297.624 168.913 C 298.821 169.635,300.025 170.365,300.300 170.536 C 300.575 170.707,300.800 170.760,300.800 170.654 C 300.800 170.373,296.294 167.600,295.836 167.600 C 295.622 167.600,296.426 168.191,297.624 168.913 M167.633 168.549 C 168.045 168.917,170.400 170.000,170.400 169.821 C 170.400 169.590,168.182 168.400,167.753 168.400 C 167.596 168.400,167.542 168.467,167.633 168.549 M243.900 169.082 C 244.395 169.178,245.205 169.178,245.700 169.082 C 246.195 168.987,245.790 168.909,244.800 168.909 C 243.810 168.909,243.405 168.987,243.900 169.082 M231.107 169.490 C 231.826 169.579,232.906 169.577,233.507 169.486 C 234.108 169.395,233.520 169.322,232.200 169.324 C 230.880 169.326,230.388 169.401,231.107 169.490 M257.400 169.604 C 258.167 169.930,261.511 170.153,261.167 169.856 C 261.075 169.777,260.010 169.611,258.800 169.488 C 257.431 169.349,256.902 169.392,257.400 169.604 M301.200 170.946 C 301.200 171.056,301.740 171.530,302.400 172.000 C 303.060 172.470,303.600 172.764,303.600 172.654 C 303.600 172.544,303.060 172.070,302.400 171.600 C 301.740 171.130,301.200 170.836,301.200 170.946 M119.905 173.483 C 120.402 173.579,121.122 173.575,121.505 173.475 C 121.887 173.375,121.480 173.296,120.600 173.301 C 119.720 173.305,119.407 173.387,119.905 173.483 M125.900 173.482 C 126.395 173.578,127.205 173.578,127.700 173.482 C 128.195 173.387,127.790 173.309,126.800 173.309 C 125.810 173.309,125.405 173.387,125.900 173.482 M114.300 173.889 C 115.015 173.978,116.185 173.978,116.900 173.889 C 117.615 173.801,117.030 173.728,115.600 173.728 C 114.170 173.728,113.585 173.801,114.300 173.889 M217.186 175.900 L 215.000 178.200 217.300 176.014 C 218.565 174.811,219.600 173.776,219.600 173.714 C 219.600 173.417,219.218 173.763,217.186 175.900 M102.100 174.276 C 102.485 174.376,103.115 174.376,103.500 174.276 C 103.885 174.175,103.570 174.093,102.800 174.093 C 102.030 174.093,101.715 174.175,102.100 174.276 M184.305 174.683 C 184.802 174.779,185.522 174.775,185.905 174.675 C 186.287 174.575,185.880 174.496,185.000 174.501 C 184.120 174.505,183.807 174.587,184.305 174.683 M236.359 174.786 L 228.519 175.036 225.814 176.418 C 221.448 178.649,220.132 180.281,209.864 196.200 C 203.063 206.744,192.722 226.559,189.631 234.968 C 187.474 240.837,186.594 249.307,187.183 258.548 C 187.406 262.040,187.494 265.049,187.378 265.235 C 187.263 265.421,187.999 266.614,189.012 267.887 C 196.274 277.002,210.110 283.965,223.800 285.395 C 225.120 285.532,227.615 285.905,229.344 286.223 C 235.067 287.273,246.791 286.688,254.600 284.961 C 260.231 283.715,277.404 275.341,283.456 270.889 C 285.467 269.410,288.527 267.168,290.256 265.908 C 294.755 262.627,306.857 250.544,309.015 247.176 C 314.939 237.934,319.390 225.481,318.200 221.476 C 317.367 218.671,317.444 217.719,318.600 216.564 L 319.599 215.564 317.700 213.279 C 316.655 212.023,314.914 209.556,313.830 207.797 C 310.118 201.771,305.829 197.096,298.000 190.542 C 296.130 188.976,293.417 186.706,291.970 185.497 C 286.555 180.970,281.982 178.945,273.268 177.214 C 266.676 175.904,264.905 175.716,267.343 176.585 C 268.192 176.888,269.542 177.653,270.343 178.285 C 271.144 178.918,272.790 179.934,274.000 180.544 C 281.564 184.357,284.186 187.449,283.900 192.222 C 282.708 212.063,245.600 211.937,245.600 192.092 C 245.600 181.794,250.866 175.602,260.000 175.161 C 261.227 175.101,261.153 175.055,259.400 174.782 C 257.101 174.424,247.702 174.426,236.359 174.786 M310.800 176.597 C 310.800 176.868,314.049 178.484,314.230 178.303 C 314.314 178.219,313.576 177.759,312.591 177.281 C 311.606 176.802,310.800 176.494,310.800 176.597 M102.200 178.423 C 93.772 180.192,85.363 186.286,78.496 195.600 C 76.793 197.910,74.544 200.889,73.498 202.220 C 71.319 204.992,65.426 216.710,64.557 219.996 C 59.147 240.476,75.573 272.991,92.434 275.181 C 95.480 275.576,101.385 277.175,109.607 279.829 C 112.262 280.686,113.342 280.800,118.834 280.800 C 122.254 280.800,126.031 280.972,127.227 281.183 C 128.422 281.394,131.920 281.764,135.000 282.005 C 138.080 282.246,142.284 282.725,144.342 283.068 C 147.773 283.641,148.361 283.638,151.407 283.033 C 153.234 282.670,156.181 282.207,157.956 282.005 C 160.219 281.747,161.535 281.376,162.364 280.763 C 163.220 280.130,163.873 279.955,164.730 280.126 L 165.914 280.363 168.134 274.081 C 169.395 270.511,171.427 263.311,172.841 257.400 L 175.329 247.000 175.651 238.200 C 175.829 233.360,176.156 227.510,176.379 225.200 C 177.859 209.833,177.244 206.822,171.807 202.805 C 170.506 201.844,168.537 199.755,167.154 197.869 C 164.418 194.139,163.993 193.741,158.800 190.047 C 151.282 184.698,145.360 181.983,139.800 181.333 C 137.160 181.025,133.740 180.374,132.200 179.886 C 129.615 179.068,128.730 179.007,120.660 179.097 C 114.141 179.169,111.194 179.043,109.060 178.597 C 105.938 177.946,104.633 177.913,102.200 178.423 M69.600 181.400 C 68.628 182.390,67.923 183.200,68.033 183.200 C 68.143 183.200,69.028 182.390,70.000 181.400 C 70.972 180.410,71.677 179.600,71.567 179.600 C 71.457 179.600,70.572 180.410,69.600 181.400 M129.800 180.404 C 136.655 181.113,142.981 183.479,147.095 186.872 C 148.247 187.822,150.090 189.277,151.191 190.103 C 158.612 195.677,159.446 206.985,153.215 217.547 C 148.899 224.863,138.872 226.357,131.414 220.794 C 130.306 219.968,128.950 219.159,128.400 218.998 C 116.721 215.564,110.262 205.773,111.500 193.380 C 112.550 182.882,116.182 179.005,124.200 179.826 C 125.080 179.916,127.600 180.176,129.800 180.404 M320.000 180.979 C 320.000 181.089,320.540 181.459,321.200 181.800 C 321.860 182.141,322.400 182.331,322.400 182.221 C 322.400 182.111,321.860 181.741,321.200 181.400 C 320.540 181.059,320.000 180.869,320.000 180.979 M77.176 185.231 L 75.000 187.261 77.300 185.354 C 79.411 183.604,79.819 183.200,79.476 183.200 C 79.408 183.200,78.373 184.114,77.176 185.231 M300.000 184.925 C 300.000 184.994,300.585 185.579,301.300 186.225 L 302.600 187.400 301.425 186.100 C 300.330 184.888,300.000 184.616,300.000 184.925 M331.400 190.800 C 332.259 191.680,333.052 192.400,333.162 192.400 C 333.272 192.400,332.659 191.680,331.800 190.800 C 330.941 189.920,330.148 189.200,330.038 189.200 C 329.928 189.200,330.541 189.920,331.400 190.800 M309.200 193.400 C 311.281 195.490,313.074 197.200,313.184 197.200 C 313.294 197.200,311.681 195.490,309.600 193.400 C 307.519 191.310,305.726 189.600,305.616 189.600 C 305.506 189.600,307.119 191.310,309.200 193.400 M70.000 192.200 C 69.028 193.190,68.323 194.000,68.433 194.000 C 68.543 194.000,69.428 193.190,70.400 192.200 C 71.372 191.210,72.077 190.400,71.967 190.400 C 71.857 190.400,70.972 191.210,70.000 192.200 M66.400 195.772 C 65.630 196.281,64.640 197.121,64.200 197.639 C 63.586 198.362,63.742 198.305,64.872 197.391 C 65.681 196.736,66.761 195.893,67.272 195.518 C 68.629 194.521,68.030 194.695,66.400 195.772 M177.400 200.400 C 178.259 201.280,179.052 202.000,179.162 202.000 C 179.272 202.000,178.659 201.280,177.800 200.400 C 176.941 199.520,176.148 198.800,176.038 198.800 C 175.928 198.800,176.541 199.520,177.400 200.400 M339.633 200.900 C 339.725 200.955,340.340 201.450,341.000 202.000 L 342.200 203.000 341.230 201.900 C 340.697 201.295,340.082 200.800,339.864 200.800 C 339.645 200.800,339.542 200.845,339.633 200.900 M180.678 204.995 C 181.044 205.762,181.414 206.319,181.501 206.232 C 181.684 206.049,180.470 203.600,180.196 203.600 C 180.095 203.600,180.312 204.228,180.678 204.995 M194.581 210.837 C 194.229 211.518,194.012 212.145,194.099 212.232 C 194.186 212.319,194.556 211.762,194.922 210.995 C 195.744 209.270,195.459 209.138,194.581 210.837 M50.981 219.637 C 50.629 220.318,50.412 220.945,50.499 221.032 C 50.586 221.119,50.956 220.562,51.322 219.795 C 52.144 218.070,51.859 217.938,50.981 219.637 M58.000 221.800 C 57.726 222.130,57.265 222.400,56.975 222.400 C 56.685 222.400,56.337 222.578,56.203 222.795 C 55.931 223.235,57.113 222.897,57.861 222.321 C 58.148 222.100,58.400 222.161,58.530 222.483 C 58.644 222.767,58.751 222.595,58.768 222.100 C 58.806 221.042,58.672 220.990,58.000 221.800 M324.000 223.776 C 324.000 225.002,324.228 225.101,324.516 224.000 C 324.631 223.561,324.562 223.100,324.362 222.977 C 324.163 222.854,324.000 223.213,324.000 223.776 M188.065 224.217 C 187.395 225.688,187.523 226.002,188.247 224.665 C 188.586 224.040,188.788 223.454,188.696 223.363 C 188.605 223.271,188.321 223.656,188.065 224.217 M58.155 229.000 C 58.156 231.860,58.220 232.978,58.297 231.483 C 58.374 229.989,58.374 227.649,58.296 226.283 C 58.218 224.918,58.155 226.140,58.155 229.000 M275.015 226.500 C 284.604 232.353,279.427 245.985,266.609 248.636 C 262.087 249.571,259.449 248.207,257.704 244.032 C 255.550 238.877,262.120 226.925,267.976 225.346 C 271.047 224.518,272.032 224.679,275.015 226.500 M181.701 227.000 C 181.705 227.880,181.787 228.193,181.883 227.695 C 181.979 227.198,181.975 226.478,181.875 226.095 C 181.775 225.713,181.696 226.120,181.701 227.000 M54.528 232.800 C 54.528 234.230,54.601 234.815,54.689 234.100 C 54.778 233.385,54.778 232.215,54.689 231.500 C 54.601 230.785,54.528 231.370,54.528 232.800 M213.026 231.394 C 217.206 233.843,217.553 240.785,213.635 243.575 C 208.657 247.120,204.080 245.959,202.628 240.784 C 200.658 233.764,207.117 227.931,213.026 231.394 M48.920 236.000 C 48.920 237.210,48.995 237.705,49.087 237.100 C 49.178 236.495,49.178 235.505,49.087 234.900 C 48.995 234.295,48.920 234.790,48.920 236.000 M180.961 240.400 C 180.961 243.810,181.022 245.205,181.097 243.500 C 181.172 241.795,181.172 239.005,181.097 237.300 C 181.022 235.595,180.961 236.990,180.961 240.400 M334.093 236.400 C 334.093 237.170,334.175 237.485,334.276 237.100 C 334.376 236.715,334.376 236.085,334.276 235.700 C 334.175 235.315,334.093 235.630,334.093 236.400 M334.893 242.800 C 334.893 243.570,334.975 243.885,335.076 243.500 C 335.176 243.115,335.176 242.485,335.076 242.100 C 334.975 241.715,334.893 242.030,334.893 242.800 M54.128 244.800 C 54.128 246.230,54.201 246.815,54.289 246.100 C 54.378 245.385,54.378 244.215,54.289 243.500 C 54.201 242.785,54.128 243.370,54.128 244.800 M91.139 245.368 C 94.881 247.303,99.766 256.658,99.044 260.506 C 97.749 267.407,89.166 269.272,83.354 263.914 C 80.844 261.602,80.278 259.763,80.461 254.524 C 80.760 245.940,85.080 242.235,91.139 245.368 M181.693 245.600 C 181.693 246.370,181.775 246.685,181.876 246.300 C 181.976 245.915,181.976 245.285,181.876 244.900 C 181.775 244.515,181.693 244.830,181.693 245.600 M335.365 252.400 C 335.365 256.250,335.425 257.825,335.498 255.900 C 335.571 253.975,335.571 250.825,335.498 248.900 C 335.425 246.975,335.365 248.550,335.365 252.400 M364.101 247.000 C 364.105 247.880,364.187 248.193,364.283 247.695 C 364.379 247.198,364.375 246.478,364.275 246.095 C 364.175 245.713,364.096 246.120,364.101 247.000 M48.493 247.200 C 48.493 247.970,48.575 248.285,48.676 247.900 C 48.776 247.515,48.776 246.885,48.676 246.500 C 48.575 246.115,48.493 246.430,48.493 247.200 M136.800 249.851 C 138.933 251.918,137.820 258.511,134.957 260.762 C 131.612 263.394,128.611 260.896,128.883 255.706 C 129.188 249.887,133.527 246.679,136.800 249.851 M181.342 252.600 C 181.341 254.580,181.408 255.440,181.492 254.512 C 181.576 253.584,181.577 251.964,181.495 250.912 C 181.412 249.860,181.343 250.620,181.342 252.600 M364.493 251.200 C 364.493 251.970,364.575 252.285,364.676 251.900 C 364.776 251.515,364.776 250.885,364.676 250.500 C 364.575 250.115,364.493 250.430,364.493 251.200 M310.181 254.500 L 308.600 256.200 310.300 254.619 C 311.881 253.148,312.184 252.800,311.881 252.800 C 311.816 252.800,311.051 253.565,310.181 254.500 M181.701 259.000 C 181.705 259.880,181.787 260.193,181.883 259.695 C 181.979 259.198,181.975 258.478,181.875 258.095 C 181.775 257.713,181.696 258.120,181.701 259.000 M330.142 263.000 C 330.141 264.980,330.208 265.840,330.292 264.912 C 330.376 263.984,330.377 262.364,330.295 261.312 C 330.212 260.260,330.143 261.020,330.142 263.000 M300.592 264.100 L 296.600 268.200 300.700 264.208 C 302.955 262.012,304.800 260.167,304.800 260.108 C 304.800 259.818,304.301 260.292,300.592 264.100 M45.740 264.400 C 45.740 266.270,45.809 267.035,45.893 266.100 C 45.977 265.165,45.977 263.635,45.893 262.700 C 45.809 261.765,45.740 262.530,45.740 264.400 M365.734 264.400 C 365.734 266.050,365.805 266.725,365.891 265.900 C 365.978 265.075,365.978 263.725,365.891 262.900 C 365.805 262.075,365.734 262.750,365.734 264.400 M35.693 269.200 C 35.693 269.970,35.775 270.285,35.876 269.900 C 35.976 269.515,35.976 268.885,35.876 268.500 C 35.775 268.115,35.693 268.430,35.693 269.200 M45.720 270.000 C 45.720 271.210,45.795 271.705,45.887 271.100 C 45.978 270.495,45.978 269.505,45.887 268.900 C 45.795 268.295,45.720 268.790,45.720 270.000 M78.200 274.400 C 79.283 275.500,80.260 276.400,80.370 276.400 C 80.480 276.400,79.683 275.500,78.600 274.400 C 77.517 273.300,76.540 272.400,76.430 272.400 C 76.320 272.400,77.117 273.300,78.200 274.400 M35.362 279.400 C 35.362 282.920,35.424 284.306,35.498 282.481 C 35.572 280.656,35.572 277.776,35.497 276.081 C 35.422 274.386,35.361 275.880,35.362 279.400 M365.720 280.800 C 365.720 282.010,365.795 282.505,365.887 281.900 C 365.978 281.295,365.978 280.305,365.887 279.700 C 365.795 279.095,365.720 279.590,365.720 280.800 M193.400 286.000 C 194.706 287.320,195.865 288.400,195.975 288.400 C 196.085 288.400,195.106 287.320,193.800 286.000 C 192.494 284.680,191.335 283.600,191.225 283.600 C 191.115 283.600,192.094 284.680,193.400 286.000 M119.111 286.293 C 120.051 286.378,121.491 286.377,122.311 286.291 C 123.130 286.205,122.360 286.136,120.600 286.137 C 118.840 286.139,118.170 286.209,119.111 286.293 M326.181 287.700 L 324.600 289.400 326.300 287.819 C 327.881 286.348,328.184 286.000,327.881 286.000 C 327.816 286.000,327.051 286.765,326.181 287.700 M365.346 289.800 C 365.347 292.000,365.414 292.849,365.495 291.687 C 365.576 290.524,365.576 288.724,365.493 287.687 C 365.411 286.649,365.345 287.600,365.346 289.800 M189.400 289.600 C 191.150 291.360,192.671 292.800,192.781 292.800 C 192.891 292.800,191.550 291.360,189.800 289.600 C 188.050 287.840,186.529 286.400,186.419 286.400 C 186.309 286.400,187.650 287.840,189.400 289.600 M316.000 287.600 C 315.230 288.022,314.744 288.374,314.920 288.383 C 315.344 288.405,317.600 287.232,317.600 286.990 C 317.600 286.728,317.577 286.737,316.000 287.600 M34.893 289.200 C 34.893 289.970,34.975 290.285,35.076 289.900 C 35.176 289.515,35.176 288.885,35.076 288.500 C 34.975 288.115,34.893 288.430,34.893 289.200 M147.107 289.090 C 147.826 289.179,148.906 289.177,149.507 289.086 C 150.108 288.995,149.520 288.922,148.200 288.924 C 146.880 288.926,146.388 289.001,147.107 289.090 M309.200 292.200 C 308.228 293.190,307.523 294.000,307.633 294.000 C 307.743 294.000,308.628 293.190,309.600 292.200 C 310.572 291.210,311.277 290.400,311.167 290.400 C 311.057 290.400,310.172 291.210,309.200 292.200 M245.300 291.876 C 245.685 291.976,246.315 291.976,246.700 291.876 C 247.085 291.775,246.770 291.693,246.000 291.693 C 245.230 291.693,244.915 291.775,245.300 291.876 M233.682 292.296 C 235.158 292.373,237.678 292.373,239.282 292.297 C 240.887 292.221,239.680 292.158,236.600 292.158 C 233.520 292.157,232.207 292.219,233.682 292.296 M59.800 294.400 C 60.883 295.500,61.860 296.400,61.970 296.400 C 62.080 296.400,61.283 295.500,60.200 294.400 C 59.117 293.300,58.140 292.400,58.030 292.400 C 57.920 292.400,58.717 293.300,59.800 294.400 M154.975 295.300 L 153.800 296.600 155.100 295.425 C 156.312 294.330,156.584 294.000,156.275 294.000 C 156.206 294.000,155.621 294.585,154.975 295.300 M303.978 297.500 L 302.600 299.000 304.100 297.622 C 305.496 296.338,305.784 296.000,305.478 296.000 C 305.412 296.000,304.737 296.675,303.978 297.500 M159.578 298.300 L 158.200 299.800 159.700 298.422 C 161.096 297.138,161.384 296.800,161.078 296.800 C 161.012 296.800,160.337 297.475,159.578 298.300 M151.200 299.400 C 150.228 300.390,149.523 301.200,149.633 301.200 C 149.743 301.200,150.628 300.390,151.600 299.400 C 152.572 298.410,153.277 297.600,153.167 297.600 C 153.057 297.600,152.172 298.410,151.200 299.400 M219.700 297.876 C 220.085 297.976,220.715 297.976,221.100 297.876 C 221.485 297.775,221.170 297.693,220.400 297.693 C 219.630 297.693,219.315 297.775,219.700 297.876 M310.378 299.100 L 309.000 300.600 310.500 299.222 C 311.896 297.938,312.184 297.600,311.878 297.600 C 311.812 297.600,311.137 298.275,310.378 299.100 M227.905 299.083 C 228.402 299.179,229.122 299.175,229.505 299.075 C 229.887 298.975,229.480 298.896,228.600 298.901 C 227.720 298.905,227.407 298.987,227.905 299.083 M338.958 299.720 C 339.348 300.005,339.814 300.860,339.993 301.620 C 340.261 302.757,340.325 302.822,340.359 301.989 C 340.404 300.872,339.410 299.200,338.701 299.200 C 338.451 299.200,338.567 299.434,338.958 299.720 M154.989 303.300 L 152.200 306.200 155.100 303.411 C 157.794 300.820,158.183 300.400,157.889 300.400 C 157.828 300.400,156.523 301.705,154.989 303.300 M60.514 301.720 C 61.001 302.226,61.474 302.587,61.564 302.523 C 61.798 302.355,60.342 300.800,59.952 300.800 C 59.774 300.800,60.027 301.214,60.514 301.720 M366.120 302.800 C 366.120 304.010,366.195 304.505,366.287 303.900 C 366.378 303.295,366.378 302.305,366.287 301.700 C 366.195 301.095,366.120 301.590,366.120 302.800 M216.705 303.083 C 217.202 303.179,217.922 303.175,218.305 303.075 C 218.687 302.975,218.280 302.896,217.400 302.901 C 216.520 302.905,216.207 302.987,216.705 303.083 M229.107 304.690 C 229.826 304.779,230.906 304.777,231.507 304.686 C 232.108 304.595,231.520 304.522,230.200 304.524 C 228.880 304.526,228.388 304.601,229.107 304.690 M271.700 307.076 C 272.085 307.176,272.715 307.176,273.100 307.076 C 273.485 306.975,273.170 306.893,272.400 306.893 C 271.630 306.893,271.315 306.975,271.700 307.076 M318.260 308.179 C 318.953 308.481,319.712 309.059,319.948 309.464 C 320.183 309.869,320.378 310.020,320.382 309.800 C 320.396 308.879,318.698 307.581,317.526 307.616 C 317.237 307.624,317.567 307.878,318.260 308.179 M82.114 308.920 C 82.601 309.426,83.074 309.787,83.164 309.723 C 83.398 309.555,81.942 308.000,81.552 308.000 C 81.374 308.000,81.627 308.414,82.114 308.920 M95.200 308.179 C 95.200 308.289,95.740 308.659,96.400 309.000 C 97.060 309.341,97.600 309.531,97.600 309.421 C 97.600 309.311,97.060 308.941,96.400 308.600 C 95.740 308.259,95.200 308.069,95.200 308.179 M117.491 310.289 C 118.201 310.377,119.461 310.379,120.291 310.292 C 121.121 310.205,120.540 310.133,119.000 310.131 C 117.460 310.129,116.781 310.200,117.491 310.289 M319.029 312.762 L 317.858 314.200 319.209 312.913 C 319.951 312.205,320.478 311.558,320.379 311.475 C 320.281 311.392,319.673 311.971,319.029 312.762 M66.400 311.884 C 66.730 312.005,67.315 312.379,67.700 312.714 C 68.570 313.472,68.627 313.084,67.771 312.229 C 67.426 311.883,66.841 311.614,66.471 311.632 C 65.923 311.657,65.910 311.704,66.400 311.884 M262.311 313.493 C 263.251 313.578,264.691 313.577,265.511 313.491 C 266.330 313.405,265.560 313.336,263.800 313.337 C 262.040 313.339,261.370 313.409,262.311 313.493 M97.700 315.476 C 98.085 315.576,98.715 315.576,99.100 315.476 C 99.485 315.375,99.170 315.293,98.400 315.293 C 97.630 315.293,97.315 315.375,97.700 315.476 M122.905 315.487 C 123.514 315.579,124.414 315.577,124.905 315.482 C 125.397 315.387,124.900 315.311,123.800 315.314 C 122.700 315.317,122.297 315.395,122.905 315.487 M109.712 316.295 C 110.764 316.377,112.384 316.376,113.312 316.292 C 114.240 316.208,113.380 316.141,111.400 316.142 C 109.420 316.143,108.660 316.212,109.712 316.295 M317.375 326.900 L 316.200 328.200 317.500 327.025 C 318.215 326.379,318.800 325.794,318.800 325.725 C 318.800 325.416,318.470 325.688,317.375 326.900 M349.186 327.900 L 347.000 330.200 349.300 328.014 C 351.437 325.982,351.783 325.600,351.486 325.600 C 351.424 325.600,350.389 326.635,349.186 327.900 M43.246 327.811 C 43.135 330.724,46.097 331.893,48.030 329.700 L 49.000 328.600 47.974 329.500 C 45.934 331.290,44.089 330.667,43.569 328.014 C 43.297 326.624,43.291 326.620,43.246 327.811 M309.993 334.700 L 305.400 339.400 310.100 334.807 C 314.466 330.540,314.982 330.000,314.693 330.000 C 314.635 330.000,312.520 332.115,309.993 334.700 M53.295 332.095 C 53.457 332.592,55.545 333.802,55.782 333.536 C 55.849 333.461,55.280 332.993,54.517 332.495 C 53.754 331.998,53.204 331.818,53.295 332.095 M318.981 333.300 L 317.400 335.000 319.100 333.419 C 320.035 332.549,320.800 331.784,320.800 331.719 C 320.800 331.416,320.452 331.719,318.981 333.300 M67.200 333.505 C 67.200 333.963,68.287 335.200,68.691 335.200 C 68.819 335.200,68.583 334.795,68.166 334.300 C 67.750 333.805,67.362 333.325,67.304 333.233 C 67.247 333.142,67.200 333.264,67.200 333.505 M279.641 339.300 C 279.585 340.810,280.879 342.011,282.500 341.954 L 283.800 341.908 282.296 341.616 C 280.474 341.263,280.389 341.186,279.995 339.520 C 279.698 338.268,279.680 338.256,279.641 339.300 M285.178 340.300 L 283.800 341.800 285.300 340.422 C 286.125 339.663,286.800 338.988,286.800 338.922 C 286.800 338.616,286.462 338.904,285.178 340.300 M305.260 340.671 C 305.227 341.371,305.483 342.226,305.829 342.571 C 306.687 343.430,307.077 343.370,306.295 342.500 C 305.950 342.115,305.589 341.260,305.493 340.600 L 305.320 339.400 305.260 340.671 M324.778 345.500 L 323.400 347.000 324.900 345.622 C 325.725 344.863,326.400 344.188,326.400 344.122 C 326.400 343.816,326.062 344.104,324.778 345.500 M215.600 348.684 C 216.763 349.111,217.600 350.135,217.600 351.130 C 217.600 351.684,217.285 352.511,216.900 352.969 C 216.201 353.799,216.201 353.799,217.100 353.038 C 218.855 351.552,217.810 348.318,215.611 348.432 C 215.075 348.459,215.074 348.490,215.600 348.684 M208.600 351.449 L 206.600 353.281 208.700 351.603 C 210.518 350.151,211.095 349.576,210.700 349.608 C 210.645 349.613,209.700 350.441,208.600 351.449 M131.600 352.000 C 130.202 353.398,130.620 355.281,132.548 356.274 L 133.800 356.917 132.500 355.698 C 130.981 354.274,130.901 353.688,132.029 352.254 C 133.006 351.012,132.743 350.857,131.600 352.000 M80.500 357.876 C 80.885 357.976,81.515 357.976,81.900 357.876 C 82.285 357.775,81.970 357.693,81.200 357.693 C 80.430 357.693,80.115 357.775,80.500 357.876 M84.500 358.276 C 84.885 358.376,85.515 358.376,85.900 358.276 C 86.285 358.175,85.970 358.093,85.200 358.093 C 84.430 358.093,84.115 358.175,84.500 358.276 M89.300 358.676 C 89.685 358.776,90.315 358.776,90.700 358.676 C 91.085 358.575,90.770 358.493,90.000 358.493 C 89.230 358.493,88.915 358.575,89.300 358.676 M282.300 358.682 C 282.795 358.778,283.605 358.778,284.100 358.682 C 284.595 358.587,284.190 358.509,283.200 358.509 C 282.210 358.509,281.805 358.587,282.300 358.682 M93.700 359.076 C 94.085 359.176,94.715 359.176,95.100 359.076 C 95.485 358.975,95.170 358.893,94.400 358.893 C 93.630 358.893,93.315 358.975,93.700 359.076 M261.907 359.090 C 262.626 359.179,263.706 359.177,264.307 359.086 C 264.908 358.995,264.320 358.922,263.000 358.924 C 261.680 358.926,261.188 359.001,261.907 359.090 M97.905 359.483 C 98.402 359.579,99.122 359.575,99.505 359.475 C 99.887 359.375,99.480 359.296,98.600 359.301 C 97.720 359.305,97.407 359.387,97.905 359.483 M104.900 359.894 C 105.945 359.976,107.655 359.976,108.700 359.894 C 109.745 359.812,108.890 359.744,106.800 359.744 C 104.710 359.744,103.855 359.812,104.900 359.894 M115.905 359.883 C 116.402 359.979,117.122 359.975,117.505 359.875 C 117.887 359.775,117.480 359.696,116.600 359.701 C 115.720 359.705,115.407 359.787,115.905 359.883 M250.100 360.276 C 250.485 360.376,251.115 360.376,251.500 360.276 C 251.885 360.175,251.570 360.093,250.800 360.093 C 250.030 360.093,249.715 360.175,250.100 360.276 M238.900 361.476 C 239.285 361.576,239.915 361.576,240.300 361.476 C 240.685 361.375,240.370 361.293,239.600 361.293 C 238.830 361.293,238.515 361.375,238.900 361.476 M222.900 363.076 C 223.285 363.176,223.915 363.176,224.300 363.076 C 224.685 362.975,224.370 362.893,223.600 362.893 C 222.830 362.893,222.515 362.975,222.900 363.076 M163.700 368.276 C 164.085 368.376,164.715 368.376,165.100 368.276 C 165.485 368.175,165.170 368.093,164.400 368.093 C 163.630 368.093,163.315 368.175,163.700 368.276 " stroke="none" fill="#3b3c3c" fill-rule="evenodd"></path><path id="path3" d="M256.126 175.997 C 247.214 178.344,242.952 189.378,247.392 198.610 C 254.359 213.096,283.637 207.455,283.777 191.600 C 283.815 187.294,282.375 185.670,274.200 180.797 C 272.000 179.486,269.843 178.134,269.406 177.793 C 266.859 175.807,260.245 174.913,256.126 175.997 M118.630 180.552 C 110.857 182.294,108.828 199.795,115.285 209.400 C 118.439 214.090,120.423 215.636,126.531 218.166 C 128.769 219.093,131.578 220.594,132.773 221.501 C 139.337 226.483,149.433 224.148,153.541 216.696 C 160.896 203.356,158.058 193.957,143.957 184.949 C 138.385 181.389,125.150 179.092,118.630 180.552 M57.173 222.991 C 55.663 223.812,54.865 228.596,54.569 238.600 C 54.289 248.097,53.511 255.225,52.364 258.800 C 50.431 264.830,51.096 272.772,53.851 276.529 C 54.363 277.228,56.060 279.677,57.621 281.972 C 61.974 288.369,64.000 290.772,66.400 292.383 C 67.610 293.196,69.457 294.446,70.505 295.162 C 71.553 295.878,72.633 296.382,72.905 296.283 C 73.177 296.183,73.760 296.414,74.200 296.796 C 75.253 297.709,77.370 298.398,79.160 298.409 C 80.769 298.420,82.665 299.421,87.850 303.000 C 94.322 307.467,95.798 308.384,96.526 308.392 C 96.926 308.396,97.635 308.605,98.102 308.854 C 98.569 309.105,100.351 309.275,102.063 309.234 C 103.775 309.193,105.536 309.352,105.977 309.588 C 107.713 310.517,110.926 310.821,114.190 310.365 C 115.956 310.119,120.010 309.915,123.200 309.911 C 128.419 309.905,129.340 309.795,132.400 308.808 C 134.270 308.205,137.150 307.393,138.800 307.005 C 143.077 305.996,150.145 301.606,149.409 300.415 C 149.294 300.228,150.081 299.442,151.159 298.668 C 152.956 297.376,158.467 291.465,159.911 289.279 C 161.027 287.589,160.108 287.379,155.313 288.230 C 150.359 289.108,146.515 289.183,141.400 288.501 C 133.688 287.472,129.366 287.218,126.760 287.640 C 123.807 288.119,120.852 287.802,120.534 286.972 C 120.283 286.319,118.359 286.247,115.600 286.787 C 114.519 286.999,113.648 286.992,113.420 286.770 C 113.211 286.566,112.672 286.400,112.221 286.400 C 111.771 286.400,110.052 285.967,108.401 285.437 C 100.235 282.818,94.269 281.215,91.091 280.787 C 88.491 280.437,86.747 279.911,84.361 278.757 C 82.590 277.901,80.901 277.200,80.607 277.200 C 80.314 277.200,79.299 276.255,78.350 275.100 C 77.402 273.945,75.642 271.920,74.439 270.600 C 73.236 269.280,71.202 266.760,69.918 265.000 C 68.635 263.240,67.078 261.170,66.460 260.400 C 64.468 257.921,62.119 252.720,60.859 248.000 C 58.532 239.286,58.221 237.116,58.210 229.501 C 58.205 225.596,58.200 222.408,58.200 222.417 C 58.200 222.425,57.738 222.683,57.173 222.991 M323.819 227.000 C 320.267 242.898,309.027 259.156,293.800 270.420 C 283.794 277.822,282.547 278.594,272.090 283.858 C 256.651 291.630,241.776 294.326,228.144 291.823 C 226.415 291.505,223.920 291.133,222.600 290.995 C 217.635 290.478,211.682 289.064,208.000 287.527 C 201.759 284.921,196.863 282.495,195.285 281.227 C 188.414 275.705,188.599 275.806,188.977 277.816 C 190.573 286.326,204.898 295.822,218.544 297.417 C 221.385 297.749,223.845 298.104,224.010 298.206 C 224.175 298.308,226.535 298.575,229.255 298.799 C 238.938 299.597,243.487 300.737,250.000 303.999 C 256.350 307.179,265.657 308.904,266.947 307.139 C 267.339 306.604,267.920 306.516,270.015 306.675 C 272.958 306.898,282.352 305.626,286.400 304.457 C 287.830 304.044,291.070 303.118,293.600 302.401 C 300.225 300.520,301.546 299.732,307.000 294.398 C 310.995 290.492,312.370 289.419,315.200 287.999 C 323.253 283.959,324.726 282.267,327.000 274.444 C 327.793 271.718,328.790 268.804,329.215 267.970 C 329.937 266.556,329.979 265.716,329.838 255.726 C 329.615 240.061,328.568 232.861,325.513 226.000 L 324.534 223.800 323.819 227.000 M267.012 225.838 C 262.300 227.563,256.399 238.302,257.626 242.919 C 260.503 253.741,276.789 248.742,279.606 236.172 C 281.125 229.394,273.774 223.362,267.012 225.838 M207.203 231.037 C 203.292 232.733,201.563 236.772,202.816 241.283 C 204.964 249.015,217.436 244.702,216.228 236.646 C 215.547 232.107,211.104 229.345,207.203 231.037 M85.000 244.965 C 79.602 247.364,78.583 258.720,83.341 263.444 C 90.375 270.426,100.920 265.970,98.584 257.003 C 96.436 248.757,89.767 242.846,85.000 244.965 M132.200 249.544 C 129.863 250.988,128.807 253.162,128.802 256.540 C 128.795 261.832,133.798 263.344,136.343 258.817 C 139.649 252.934,136.851 246.672,132.200 249.544 " stroke="none" fill="#dbebe3" fill-rule="evenodd"></path><path id="path4" d="M260.400 155.046 C 252.954 155.629,248.281 156.092,246.400 156.432 C 245.190 156.652,241.320 157.261,237.800 157.788 C 234.280 158.314,226.630 159.917,220.800 161.350 C 214.970 162.782,207.140 164.608,203.400 165.408 C 199.660 166.207,195.700 167.107,194.600 167.406 C 185.898 169.776,176.654 168.232,171.365 163.526 C 170.860 163.076,169.166 162.544,167.077 162.180 C 165.178 161.848,161.864 161.031,159.712 160.363 C 146.288 156.199,119.955 154.682,106.800 157.317 C 91.425 160.396,84.524 163.327,72.423 171.918 C 59.394 181.168,48.798 199.404,40.418 227.000 C 40.017 228.320,39.134 230.787,38.455 232.483 C 37.187 235.653,35.281 242.133,35.303 243.200 C 35.310 243.530,34.494 247.130,33.490 251.200 C 30.348 263.936,30.044 266.033,29.577 278.200 C 29.141 289.557,28.777 291.507,26.028 297.192 C 25.190 298.924,24.200 301.569,23.828 303.070 C 23.456 304.572,22.892 306.832,22.576 308.094 C 21.409 312.742,22.282 323.786,24.250 329.287 C 27.040 337.087,29.906 341.156,37.493 348.086 C 46.009 355.866,58.889 361.018,74.200 362.769 C 109.010 366.750,130.560 366.194,136.975 361.148 L 138.056 360.298 139.328 361.516 C 141.827 363.910,152.950 371.015,155.926 372.118 C 161.875 374.323,177.672 374.734,184.422 372.860 C 191.066 371.016,200.522 366.609,204.502 363.502 L 206.005 362.329 208.702 363.849 C 216.636 368.318,222.279 369.569,229.311 368.417 C 230.581 368.209,235.891 367.577,241.111 367.012 C 246.330 366.447,252.850 365.707,255.600 365.366 C 258.563 364.999,265.245 364.676,272.000 364.572 C 305.617 364.058,316.493 361.142,329.363 349.189 C 331.882 346.850,333.640 345.597,335.761 344.631 C 341.000 342.243,347.569 337.460,354.430 331.036 C 356.096 329.476,358.502 327.315,359.778 326.233 C 361.053 325.150,362.733 323.260,363.512 322.033 C 364.291 320.805,365.934 318.711,367.164 317.380 C 372.004 312.141,372.878 308.403,371.602 298.400 C 371.380 296.654,371.315 288.715,371.446 279.400 C 371.709 260.861,370.384 243.182,368.269 237.000 C 364.779 226.800,361.699 220.921,354.651 211.000 C 344.802 197.139,343.009 194.715,341.930 193.804 C 341.341 193.308,339.498 191.304,337.834 189.351 C 328.837 178.792,329.531 179.342,318.137 173.732 C 311.993 170.708,308.657 168.842,308.232 168.192 C 307.879 167.653,307.098 167.089,306.498 166.939 C 305.897 166.788,304.504 166.131,303.403 165.480 C 293.499 159.622,271.164 154.203,260.400 155.046 M269.838 161.726 C 273.400 163.020,279.268 164.414,282.645 164.768 C 291.369 165.681,295.819 167.169,301.664 171.126 C 304.044 172.738,309.650 175.825,314.451 178.167 C 326.138 183.870,325.473 183.331,335.229 195.000 C 337.436 197.640,339.917 200.520,340.742 201.400 C 341.567 202.280,343.205 204.440,344.383 206.200 C 345.560 207.960,348.271 211.830,350.407 214.800 C 363.599 233.140,366.236 244.451,365.939 281.400 C 365.841 293.535,365.948 299.829,366.303 302.774 L 366.806 306.947 365.590 309.546 C 364.922 310.975,363.606 312.967,362.668 313.972 C 361.729 314.977,360.225 316.885,359.327 318.210 C 357.854 320.381,356.007 322.153,346.271 330.729 C 342.554 334.003,336.200 338.280,332.400 340.066 C 330.251 341.077,328.328 342.457,325.620 344.931 C 313.650 355.870,305.632 358.032,274.200 358.797 C 266.169 358.993,257.983 359.408,255.000 359.771 C 247.159 360.724,228.499 362.854,225.986 363.083 C 222.343 363.414,217.632 362.300,213.771 360.196 C 209.936 358.105,210.117 358.332,211.300 357.097 C 211.795 356.580,212.600 355.676,213.088 355.089 C 213.577 354.502,214.477 353.902,215.088 353.757 C 218.270 353.001,218.505 349.743,215.457 348.657 C 213.450 347.942,206.045 352.839,203.800 356.366 C 201.627 359.780,190.281 365.594,181.842 367.617 C 177.762 368.595,165.375 368.720,161.154 367.825 C 155.680 366.665,144.884 359.701,141.455 355.118 C 138.192 350.758,134.388 349.575,132.100 352.209 C 130.906 353.583,130.964 354.259,132.394 355.594 L 133.588 356.710 130.294 357.728 C 120.455 360.769,103.048 360.542,73.000 356.980 C 56.715 355.049,43.549 348.054,33.886 336.200 C 27.265 328.079,25.845 310.164,31.013 299.977 C 31.621 298.780,32.736 296.090,33.493 294.000 L 34.868 290.200 35.205 279.800 C 35.715 264.076,38.794 248.679,45.005 230.800 C 46.000 227.936,46.406 226.155,46.280 225.200 C 45.744 221.115,60.194 192.729,67.137 184.229 C 73.344 176.629,89.946 166.353,97.562 165.396 C 98.400 165.291,99.876 164.925,100.843 164.584 C 113.506 160.106,144.955 160.855,158.245 165.950 C 159.980 166.616,162.721 167.368,164.336 167.622 C 166.475 167.959,168.274 168.610,170.959 170.019 C 179.213 174.351,185.261 175.209,194.000 173.287 C 208.488 170.102,213.801 168.879,223.000 166.607 C 229.699 164.953,236.033 163.672,240.800 163.008 C 244.870 162.441,249.280 161.739,250.600 161.447 C 253.967 160.705,267.570 160.901,269.838 161.726 M238.239 169.240 C 222.486 169.836,219.242 171.630,211.200 184.186 C 209.550 186.762,207.229 190.339,206.042 192.135 C 201.329 199.267,196.035 208.677,191.378 218.200 C 182.773 235.799,181.913 238.843,181.767 252.200 C 181.716 256.820,181.551 262.040,181.399 263.800 C 180.946 269.063,183.398 280.918,185.786 285.006 C 190.240 292.633,205.902 301.587,216.914 302.800 C 218.721 303.000,222.090 303.435,224.400 303.769 C 226.710 304.102,230.580 304.563,233.000 304.792 C 238.894 305.351,241.285 306.031,247.226 308.836 C 254.450 312.246,258.902 313.316,264.800 313.058 C 274.377 312.640,283.725 311.125,292.373 308.588 C 303.478 305.331,304.549 304.746,310.736 298.558 C 314.443 294.849,315.370 294.161,319.682 291.910 C 327.214 287.979,329.869 284.692,332.196 276.413 C 332.780 274.338,333.739 271.551,334.329 270.220 L 335.400 267.800 335.276 256.600 C 335.208 250.440,334.983 243.915,334.776 242.100 C 333.761 233.190,333.505 231.656,332.564 228.836 C 330.358 222.221,327.141 216.341,322.807 211.000 C 321.557 209.460,319.160 206.085,317.480 203.499 C 311.025 193.567,294.543 178.999,285.267 175.029 C 279.930 172.745,263.914 169.403,260.532 169.867 C 259.477 170.013,258.164 169.858,256.960 169.448 C 254.863 168.734,252.354 168.706,238.239 169.240 M119.200 173.674 C 117.550 173.878,115.214 173.953,114.009 173.842 C 108.102 173.295,98.152 174.653,93.448 176.649 C 92.102 177.220,89.650 178.168,88.000 178.756 C 84.757 179.911,81.197 182.127,77.400 185.355 C 74.932 187.453,73.720 188.639,69.153 193.426 C 67.698 194.952,66.029 196.526,65.446 196.924 C 64.158 197.803,59.435 204.759,57.452 208.696 C 56.659 210.271,55.179 212.963,54.163 214.680 C 50.304 221.197,49.115 224.624,49.334 228.600 C 49.722 235.663,48.315 252.899,46.965 257.600 C 44.724 265.410,45.945 275.630,49.674 280.279 C 50.346 281.116,52.226 283.817,53.853 286.283 C 58.529 293.370,61.158 295.906,68.807 300.707 C 71.346 302.301,76.367 303.997,78.564 304.002 C 79.459 304.004,79.673 304.131,84.977 307.800 C 86.885 309.120,90.281 311.335,92.523 312.723 L 96.600 315.247 100.400 314.994 C 103.494 314.788,104.497 314.868,105.800 315.423 C 107.214 316.026,108.236 316.067,114.600 315.778 C 118.560 315.598,123.780 315.428,126.200 315.400 C 129.651 315.360,131.117 315.158,133.000 314.467 C 134.320 313.982,137.200 313.130,139.400 312.573 C 148.025 310.393,153.132 306.301,164.579 292.400 C 170.312 285.438,173.810 276.741,178.093 258.800 L 180.528 248.600 180.840 240.200 C 181.011 235.580,181.434 229.010,181.780 225.600 C 182.802 215.536,182.921 212.758,182.444 210.215 C 181.539 205.400,178.739 200.973,174.950 198.366 C 174.017 197.724,172.236 195.754,170.991 193.988 C 165.524 186.229,150.161 176.982,141.174 176.041 C 138.658 175.777,135.404 175.211,133.941 174.782 C 131.506 174.068,124.920 173.151,123.000 173.259 C 122.560 173.284,120.850 173.470,119.200 173.674 M268.928 176.353 C 281.505 178.741,285.791 180.402,291.456 185.084 C 305.807 196.945,309.377 200.570,313.830 207.797 C 314.914 209.556,316.655 212.023,317.700 213.279 L 319.599 215.564 318.600 216.564 C 317.444 217.719,317.367 218.671,318.200 221.476 C 319.390 225.481,314.939 237.934,309.015 247.176 C 306.857 250.544,294.755 262.627,290.256 265.908 C 288.527 267.168,285.467 269.410,283.456 270.889 C 277.404 275.341,260.231 283.715,254.600 284.961 C 246.791 286.688,235.067 287.273,229.344 286.223 C 227.615 285.905,225.120 285.532,223.800 285.395 C 214.017 284.373,203.598 280.386,196.697 275.023 C 191.307 270.835,186.826 266.128,187.378 265.235 C 187.494 265.049,187.406 262.040,187.183 258.548 C 186.594 249.307,187.474 240.837,189.631 234.968 C 192.722 226.559,203.063 206.744,209.864 196.200 C 220.132 180.281,221.448 178.649,225.814 176.418 L 228.519 175.036 236.359 174.764 C 252.900 174.192,259.149 174.496,268.928 176.353 M109.060 178.597 C 111.194 179.043,114.141 179.169,120.660 179.097 C 128.730 179.007,129.615 179.068,132.200 179.886 C 133.740 180.374,137.160 181.025,139.800 181.333 C 145.360 181.983,151.282 184.698,158.800 190.047 C 163.993 193.741,164.418 194.139,167.154 197.869 C 168.537 199.755,170.506 201.844,171.807 202.805 C 177.244 206.822,177.859 209.833,176.379 225.200 C 176.156 227.510,175.829 233.360,175.651 238.200 L 175.329 247.000 172.841 257.400 C 171.427 263.311,169.395 270.511,168.134 274.081 L 165.914 280.363 164.730 280.126 C 163.873 279.955,163.220 280.130,162.364 280.763 C 161.535 281.376,160.219 281.747,157.956 282.005 C 156.181 282.207,153.234 282.670,151.407 283.033 C 148.361 283.638,147.773 283.641,144.342 283.068 C 142.284 282.725,138.080 282.246,135.000 282.005 C 131.920 281.764,128.422 281.394,127.227 281.183 C 126.031 280.972,122.254 280.800,118.834 280.800 C 113.342 280.800,112.262 280.686,109.607 279.829 C 101.385 277.175,95.480 275.576,92.434 275.181 C 86.390 274.396,82.361 271.531,75.870 263.400 C 66.096 251.157,61.244 232.539,64.557 219.996 C 65.426 216.710,71.319 204.992,73.498 202.220 C 74.544 200.889,76.793 197.910,78.496 195.600 C 87.736 183.068,99.396 176.581,109.060 178.597 M58.621 229.500 C 58.662 246.233,63.729 258.608,75.818 271.503 C 81.678 277.753,84.833 279.544,91.841 280.596 C 95.371 281.126,100.164 282.429,108.400 285.098 C 111.497 286.102,112.264 286.191,117.000 286.102 C 119.925 286.047,124.125 286.262,126.600 286.593 C 129.020 286.917,133.384 287.370,136.297 287.601 C 139.210 287.831,142.520 288.195,143.651 288.410 C 146.359 288.923,149.873 288.905,152.397 288.363 C 154.972 287.811,162.000 286.912,162.000 287.135 C 162.000 287.227,160.702 288.854,159.116 290.751 C 148.759 303.139,145.719 305.518,137.400 307.744 C 134.540 308.509,131.210 309.427,130.000 309.784 C 128.790 310.141,127.260 310.330,126.600 310.204 C 125.940 310.077,121.764 310.191,117.320 310.456 C 110.705 310.851,108.928 310.843,107.520 310.410 C 104.442 309.464,102.649 309.266,100.424 309.629 C 97.950 310.031,96.397 309.361,91.213 305.651 C 89.791 304.633,88.040 303.440,87.323 303.000 C 86.606 302.560,85.070 301.528,83.910 300.706 C 82.212 299.503,81.137 299.097,78.400 298.621 C 70.601 297.266,64.167 292.249,57.595 282.400 C 56.201 280.310,54.579 277.970,53.991 277.200 C 51.081 273.389,50.155 264.987,51.999 259.136 C 53.193 255.348,53.960 248.497,54.365 238.000 C 54.782 227.155,55.492 222.973,57.011 222.396 C 57.512 222.205,58.040 221.858,58.185 221.625 C 58.329 221.391,58.482 221.200,58.524 221.200 C 58.566 221.200,58.609 224.935,58.621 229.500 M326.313 227.091 C 328.887 233.304,329.492 237.681,330.025 253.939 L 330.423 266.078 329.410 268.291 C 328.853 269.508,327.926 272.235,327.351 274.352 C 325.316 281.841,323.422 284.172,316.587 287.600 C 312.659 289.570,311.698 290.284,307.400 294.431 C 300.905 300.697,295.829 302.989,282.600 305.629 C 266.029 308.936,258.869 308.583,249.136 303.980 C 243.230 301.188,239.593 300.168,233.450 299.583 C 231.002 299.350,227.290 298.903,225.200 298.590 C 223.110 298.277,219.663 297.837,217.539 297.613 C 205.171 296.307,191.157 286.801,188.738 278.077 C 187.855 274.896,187.870 274.876,189.831 276.523 C 193.889 279.931,198.014 282.827,200.200 283.802 C 211.232 288.723,213.861 289.539,222.200 290.633 C 224.840 290.979,227.880 291.429,228.955 291.631 C 237.681 293.277,257.817 290.913,264.179 287.496 C 265.730 286.663,270.420 284.299,274.600 282.244 C 279.647 279.762,283.561 277.514,286.250 275.553 C 288.478 273.929,291.433 271.790,292.818 270.800 C 295.714 268.728,306.531 258.573,309.982 254.685 C 315.869 248.054,322.910 232.948,323.861 224.910 C 324.178 222.224,324.365 222.390,326.313 227.091 M336.291 299.637 C 335.901 299.864,334.686 301.836,333.591 304.019 C 328.627 313.909,322.355 322.226,311.135 333.797 C 305.247 339.869,304.627 340.996,306.331 342.538 C 308.107 344.145,309.885 342.979,316.659 335.769 C 332.336 319.084,342.366 303.166,339.200 300.000 C 338.321 299.121,337.379 299.004,336.291 299.637 M57.690 301.422 C 57.201 301.764,56.092 303.519,55.225 305.322 C 54.358 307.125,51.391 312.650,48.631 317.600 C 43.662 326.513,43.113 327.943,44.014 329.626 C 44.670 330.852,46.930 330.667,48.003 329.300 C 50.440 326.197,61.600 305.047,61.600 303.531 C 61.600 301.639,59.216 300.353,57.690 301.422 M79.054 308.829 C 78.474 309.285,78.000 309.919,78.000 310.237 C 78.000 310.773,75.947 314.872,69.657 326.896 C 66.945 332.080,66.825 332.615,68.029 334.146 C 69.969 336.612,71.029 335.670,75.290 327.687 C 83.072 313.109,83.962 310.725,82.259 309.022 C 81.020 307.783,80.429 307.748,79.054 308.829 M315.903 308.728 C 314.609 309.582,312.638 312.068,306.808 320.200 C 298.033 332.441,297.124 334.345,299.358 335.809 C 301.109 336.957,302.213 336.248,304.896 332.251 C 308.540 326.823,316.266 316.130,318.469 313.465 C 320.677 310.795,320.774 310.338,319.418 308.982 C 318.251 307.815,317.384 307.752,315.903 308.728 M64.774 312.138 C 64.256 312.396,63.127 313.866,62.266 315.404 C 58.995 321.241,56.407 325.476,54.814 327.596 C 52.391 330.822,53.586 334.131,56.708 332.838 C 59.081 331.855,68.400 316.942,68.400 314.128 C 68.400 312.570,66.261 311.397,64.774 312.138 M296.144 313.700 C 295.706 314.195,293.943 317.030,292.225 320.000 C 288.398 326.619,283.640 333.935,281.556 336.407 C 278.000 340.624,281.641 343.868,285.476 339.900 C 288.352 336.925,300.800 316.951,300.800 315.313 C 300.800 312.967,297.731 311.904,296.144 313.700 " stroke="none" fill="#050505" fill-rule="evenodd"></path></g></svg>