<svg id="svg" version="1.1" xmlns="http://www.w3.org/2000/svg" xmlns:xlink="http://www.w3.org/1999/xlink" width="400" height="400" viewBox="0, 0, 400,400"><g id="svgg"><path id="path0" d="M55.108 78.500 C 53.649 81.231,53.829 86.751,55.514 91.000 C 58.664 98.944,69.691 112.474,77.356 117.800 C 78.622 118.680,80.382 119.985,81.267 120.700 C 84.403 123.234,88.675 121.648,94.386 115.828 C 96.341 113.836,96.873 112.763,95.231 114.123 C 93.800 115.310,87.816 118.480,86.652 118.669 C 82.424 119.355,66.226 103.784,59.888 92.941 C 56.744 87.561,54.835 79.409,56.201 77.198 C 56.337 76.979,56.350 76.800,56.232 76.800 C 56.113 76.800,55.608 77.565,55.108 78.500 M265.438 94.900 C 263.079 98.558,264.017 110.815,267.092 116.521 C 269.289 120.598,271.849 120.024,277.951 114.087 C 280.761 111.353,281.266 110.732,279.824 111.785 C 278.738 112.578,277.630 113.144,277.362 113.041 C 277.094 112.938,276.544 113.220,276.139 113.668 C 270.868 119.491,265.633 111.466,266.063 98.222 C 266.138 95.900,266.159 93.999,266.109 94.000 C 266.059 94.000,265.757 94.405,265.438 94.900 M145.397 107.746 C 144.506 109.878,145.876 113.547,149.884 119.763 C 155.459 128.409,159.057 129.933,163.621 125.580 C 164.763 124.491,165.821 123.600,165.973 123.600 C 166.125 123.600,166.643 123.068,167.123 122.418 L 167.997 121.237 166.310 121.832 C 165.382 122.159,164.219 122.807,163.724 123.271 C 162.097 124.800,159.306 124.738,157.187 123.126 C 154.200 120.853,147.889 111.133,147.041 107.500 C 146.696 106.021,146.079 106.114,145.397 107.746 M344.898 146.085 C 340.565 155.330,343.423 188.020,348.800 190.698 C 355.289 193.931,376.624 185.856,380.441 178.723 C 380.708 178.225,380.275 178.381,378.997 179.244 C 377.994 179.921,376.954 180.514,376.687 180.561 C 376.419 180.608,375.056 181.396,373.658 182.311 C 365.481 187.662,351.493 189.661,348.988 185.838 C 345.660 180.759,343.248 153.450,345.489 146.222 C 346.156 144.072,345.873 144.006,344.898 146.085 M33.823 182.489 C 32.504 184.372,33.165 186.387,37.016 192.218 C 42.587 200.652,48.594 202.603,50.978 196.751 L 51.568 195.303 50.137 196.032 C 46.168 198.056,39.491 192.288,35.587 183.465 C 34.635 181.311,34.644 181.316,33.823 182.489 M305.200 186.456 C 290.179 189.588,280.085 195.725,271.842 206.737 C 271.508 207.184,272.433 207.226,277.344 206.982 C 283.875 206.659,284.798 206.865,285.610 208.824 C 287.052 212.305,282.476 214.410,270.617 215.721 L 266.280 216.200 265.708 217.800 C 262.919 225.610,262.077 235.335,263.548 242.738 C 264.542 247.738,266.786 255.200,267.295 255.200 C 267.929 255.200,273.705 250.418,275.831 248.133 C 278.198 245.589,279.725 245.226,281.409 246.809 C 284.165 249.398,282.836 251.239,271.570 260.437 L 269.810 261.875 270.979 263.437 C 274.036 267.523,280.854 273.262,285.672 275.804 C 292.025 279.156,306.126 283.295,307.067 282.084 C 324.463 259.703,337.247 225.393,338.634 197.362 L 338.912 191.744 333.556 189.887 C 325.669 187.152,321.433 186.027,317.400 185.597 C 312.331 185.057,311.696 185.102,305.200 186.456 M91.400 199.223 C 76.947 200.699,73.500 201.937,67.923 207.657 C 63.626 212.064,63.695 211.824,65.154 217.292 C 71.802 242.202,87.004 268.314,106.945 289.076 C 111.851 294.183,111.528 294.010,113.138 292.400 C 114.737 290.802,117.355 290.709,119.112 292.187 L 120.285 293.175 123.898 291.254 C 130.690 287.643,131.762 286.629,136.212 279.611 C 139.318 274.712,139.307 275.303,136.323 273.600 C 130.766 270.428,122.391 261.285,122.961 259.013 C 123.695 256.088,130.000 256.088,130.000 259.013 C 130.000 260.416,141.006 269.600,142.688 269.600 C 143.003 269.600,143.933 268.143,144.795 266.300 C 150.579 253.930,149.279 231.420,142.302 223.128 L 141.400 222.056 131.417 221.573 C 125.926 221.307,119.522 221.206,117.185 221.348 C 111.211 221.711,109.600 221.020,109.600 218.096 C 109.600 215.958,110.998 215.178,115.872 214.601 C 135.213 212.309,133.478 212.750,130.773 210.812 C 118.281 201.864,104.694 197.865,91.400 199.223 M324.481 205.100 C 325.081 205.795,328.822 213.594,331.964 220.701 C 333.803 224.860,333.955 226.045,332.800 227.200 C 330.728 229.272,328.804 227.910,326.588 222.800 C 325.777 220.930,323.963 216.944,322.557 213.943 C 319.903 208.280,319.571 206.791,320.623 205.289 C 321.396 204.185,323.597 204.077,324.481 205.100 M311.916 206.910 C 312.892 207.949,315.744 213.866,319.481 222.600 C 320.892 225.900,322.757 229.919,323.624 231.531 C 325.807 235.591,325.408 237.733,322.467 237.733 C 320.149 237.733,318.801 235.622,314.207 224.800 C 312.946 221.830,310.853 217.225,309.557 214.566 C 306.953 209.225,306.823 208.587,308.029 207.054 C 309.075 205.724,310.743 205.662,311.916 206.910 M299.474 208.526 C 299.735 208.787,300.206 209.720,300.522 210.600 C 302.030 214.803,309.208 232.848,309.955 234.312 C 311.833 237.992,310.244 240.833,306.998 239.599 C 305.750 239.125,303.650 234.860,300.487 226.381 C 299.375 223.400,297.550 218.690,296.430 215.914 C 294.225 210.444,294.184 209.563,296.075 208.226 C 297.051 207.536,298.622 207.675,299.474 208.526 M94.100 208.700 C 94.882 209.576,98.053 217.110,101.429 226.114 C 102.850 229.901,105.038 235.127,106.293 237.727 C 108.815 242.955,108.816 244.083,106.298 244.968 C 103.748 245.865,101.404 242.175,96.794 230.000 C 95.420 226.370,93.239 220.828,91.948 217.685 C 90.656 214.541,89.600 211.436,89.600 210.785 C 89.600 208.458,92.632 207.053,94.100 208.700 M81.300 209.909 C 82.207 210.705,85.472 217.453,87.539 222.800 C 88.432 225.110,90.618 230.740,92.397 235.312 C 95.959 244.465,96.039 245.275,93.472 246.177 C 90.760 247.131,91.317 248.186,81.824 224.108 C 80.330 220.317,78.503 216.267,77.764 215.108 C 75.034 210.825,77.767 206.807,81.300 209.909 M76.674 223.270 C 77.183 223.748,77.600 224.527,77.600 225.001 C 77.600 226.634,80.488 233.031,83.378 237.800 C 86.120 242.323,83.081 245.707,79.581 242.028 C 77.263 239.592,71.600 227.644,71.600 225.191 C 71.600 222.813,74.870 221.575,76.674 223.270 M305.055 289.676 C 303.414 294.170,303.237 299.719,304.337 312.126 C 304.724 316.485,304.896 320.141,304.720 320.249 C 304.341 320.484,304.295 322.462,304.648 323.382 C 305.270 325.001,308.695 325.709,310.338 324.558 C 311.165 323.979,312.140 323.964,320.282 324.404 C 334.909 325.195,339.942 324.048,343.587 319.091 C 345.131 316.993,344.868 316.790,342.504 318.256 C 337.825 321.159,331.535 321.837,318.558 320.837 C 313.525 320.449,312.635 320.471,311.886 320.995 C 309.301 322.806,306.193 320.962,306.568 317.841 C 306.703 316.718,306.549 313.083,306.225 309.763 C 305.351 300.799,305.089 293.727,305.522 290.800 C 305.989 287.656,305.884 287.405,305.055 289.676 M105.624 300.832 C 104.340 303.817,103.499 308.088,104.117 308.481 C 104.988 309.034,105.104 308.829,105.382 306.234 C 105.533 304.822,105.900 302.619,106.198 301.337 C 106.886 298.377,106.737 298.246,105.624 300.832 M75.038 316.443 C 70.515 324.105,87.944 338.063,100.797 337.072 C 104.394 336.795,108.594 335.377,110.636 333.752 C 111.431 333.118,112.468 332.382,112.941 332.116 C 114.030 331.501,115.200 330.076,115.200 329.364 C 115.200 328.696,113.681 329.273,111.800 330.655 C 101.501 338.225,78.207 329.155,76.074 316.745 L 75.800 315.151 75.038 316.443 M237.129 350.267 C 234.715 355.725,237.879 363.211,243.695 365.802 C 245.073 366.416,246.630 367.342,247.155 367.859 C 249.023 369.701,252.188 368.164,257.763 362.708 C 260.666 359.867,260.660 359.683,257.728 361.668 C 256.808 362.291,255.908 362.801,255.728 362.802 C 255.548 362.803,254.590 363.342,253.600 364.000 C 251.405 365.459,250.419 365.501,248.873 364.200 C 248.219 363.650,247.480 363.200,247.229 363.200 C 243.130 363.200,238.253 356.545,238.216 350.900 C 238.197 347.907,238.178 347.896,237.129 350.267 " stroke="none" fill="#e9893b" fill-rule="evenodd"></path><path id="path1" d="M121.000 133.579 C 103.122 135.669,90.486 145.418,86.235 160.400 C 84.863 165.234,84.510 165.741,81.927 166.586 C 74.599 168.981,64.879 174.080,63.096 176.465 C 61.156 179.059,61.787 207.940,63.857 211.292 C 63.956 211.452,65.180 210.273,66.577 208.671 C 72.585 201.782,76.263 200.459,94.040 198.793 C 104.695 197.795,117.324 201.634,129.101 209.452 L 133.603 212.440 140.101 212.020 C 143.676 211.790,150.720 211.426,155.755 211.212 C 160.791 210.998,164.967 210.766,165.036 210.697 C 165.105 210.628,163.595 209.387,161.681 207.938 C 138.460 190.367,107.710 171.847,103.939 173.161 C 101.644 173.961,99.600 172.526,99.600 170.115 C 99.600 167.614,101.771 166.237,105.358 166.462 C 107.361 166.587,107.585 166.518,107.787 165.711 C 108.605 162.443,110.753 162.542,117.926 166.179 C 138.267 176.494,163.649 195.631,178.485 211.837 C 182.160 215.852,182.310 218.298,178.986 220.012 C 178.334 220.348,177.289 220.964,176.665 221.381 C 175.598 222.092,174.520 222.140,158.856 222.169 L 142.183 222.200 143.917 225.087 C 150.096 235.372,150.503 255.503,144.762 266.875 C 143.318 269.737,143.318 270.000,144.765 270.000 C 146.548 270.000,168.800 245.092,168.800 243.097 C 168.800 239.472,174.523 239.711,175.432 243.374 C 175.796 244.840,180.066 250.420,183.915 254.461 C 188.868 259.660,195.144 263.410,202.920 265.817 L 206.440 266.907 208.320 265.579 C 214.207 261.422,220.762 255.057,227.342 247.107 C 233.712 239.412,235.484 239.495,239.660 247.685 C 243.933 256.066,247.096 259.403,253.458 262.237 L 256.754 263.706 261.008 260.353 C 263.348 258.509,265.632 256.711,266.084 256.359 L 266.905 255.717 265.870 252.559 C 261.692 239.806,261.452 230.457,265.012 219.243 L 265.951 216.285 261.876 216.541 C 259.634 216.681,252.310 217.067,245.600 217.399 C 219.781 218.674,217.492 218.835,216.282 219.461 C 213.544 220.877,209.036 216.185,211.607 214.596 C 211.856 214.442,211.701 213.947,211.207 213.318 C 209.353 210.961,210.188 209.455,215.800 205.038 C 217.120 203.999,218.483 202.665,218.829 202.075 C 219.175 201.484,221.875 199.032,224.829 196.627 C 227.783 194.222,233.350 189.564,237.200 186.275 C 241.050 182.985,247.620 177.554,251.800 174.205 C 255.980 170.856,259.743 167.730,260.162 167.258 C 262.165 165.003,265.904 166.922,265.492 169.994 L 265.273 171.620 266.537 170.847 C 285.268 159.395,284.949 159.537,286.771 161.854 C 288.027 163.451,287.847 165.072,286.247 166.581 C 281.898 170.684,263.272 182.808,240.200 196.556 C 228.773 203.365,225.953 205.286,226.532 205.865 C 226.712 206.045,231.481 206.229,237.129 206.275 C 242.778 206.321,251.180 206.547,255.800 206.778 C 260.420 207.010,265.759 207.199,267.663 207.199 L 271.127 207.200 273.168 204.603 C 280.558 195.200,291.132 189.150,305.373 186.177 C 314.656 184.240,321.461 185.149,335.100 190.147 L 338.800 191.504 338.796 185.652 C 338.790 178.590,338.552 176.800,337.620 176.800 C 337.248 176.800,335.967 176.069,334.772 175.175 C 328.686 170.623,317.115 166.171,310.610 165.878 C 306.660 165.701,306.275 165.363,304.237 160.279 C 298.740 146.571,288.393 140.391,271.800 140.905 C 252.349 141.507,233.144 152.360,221.728 169.200 C 218.748 173.596,217.772 176.597,217.447 182.360 C 217.144 187.757,216.468 188.039,207.677 186.435 C 202.038 185.407,195.040 185.073,190.372 185.609 C 185.387 186.182,182.181 185.817,180.893 184.529 C 179.847 183.484,179.849 183.387,180.976 179.600 C 182.318 175.087,181.898 170.761,179.594 165.386 C 178.618 163.109,172.432 154.951,168.556 150.829 C 156.655 138.173,138.386 131.546,121.000 133.579 M232.307 251.508 C 225.358 260.424,214.377 270.311,207.513 273.832 C 204.990 275.127,203.776 275.073,202.408 273.609 C 201.727 272.879,200.151 272.006,198.347 271.358 C 188.859 267.948,181.456 262.548,174.825 254.200 C 171.740 250.317,172.295 250.298,168.760 254.400 C 167.148 256.270,162.673 261.312,158.815 265.605 C 154.957 269.898,151.080 274.234,150.200 275.241 C 147.621 278.193,145.255 278.908,143.453 277.281 C 142.638 276.545,140.379 275.600,139.434 275.600 C 139.189 275.600,138.011 277.175,136.817 279.100 C 132.229 286.499,130.638 288.014,123.700 291.589 C 120.051 293.469,120.085 293.415,121.167 295.536 C 121.589 296.363,122.227 298.455,122.584 300.186 C 123.396 304.115,122.794 303.396,128.406 307.139 C 149.240 321.034,176.881 327.339,214.125 326.690 C 252.916 326.015,286.974 310.111,305.625 283.964 L 306.364 282.927 301.989 281.868 C 296.661 280.579,288.189 277.572,285.200 275.910 C 280.037 273.038,271.939 265.879,270.064 262.528 C 269.780 262.022,268.920 262.543,265.358 265.376 C 257.456 271.663,255.627 272.411,253.542 270.202 C 253.024 269.654,250.933 268.389,248.896 267.391 C 243.086 264.547,238.740 260.110,235.110 253.318 L 233.397 250.111 232.307 251.508 " stroke="none" fill="#8aefd4" fill-rule="evenodd"></path><path id="path2" d="M122.500 127.225 C 101.165 129.638,84.194 142.195,80.767 158.105 C 80.163 160.909,80.573 160.589,74.000 163.383 C 63.886 167.682,60.630 169.651,60.954 171.272 C 61.399 173.496,58.185 187.729,56.502 190.989 C 55.999 191.963,55.936 193.084,56.155 197.189 C 57.008 213.175,61.110 227.234,70.574 246.600 C 72.832 251.220,74.691 255.160,74.705 255.355 C 74.720 255.551,74.894 255.821,75.093 255.955 C 75.292 256.090,76.432 257.910,77.626 260.000 C 78.821 262.090,81.464 266.300,83.499 269.356 C 85.535 272.413,87.200 275.003,87.200 275.112 C 87.200 275.222,87.442 275.512,87.739 275.756 C 88.035 276.000,89.724 278.000,91.492 280.200 C 95.000 284.567,103.733 294.239,105.826 296.076 L 107.138 297.228 109.089 295.314 L 111.041 293.400 105.616 287.800 C 93.181 274.966,85.546 264.094,76.820 246.800 C 65.109 223.590,61.853 211.025,61.818 188.920 L 61.800 177.240 63.335 175.667 C 65.488 173.461,79.602 166.400,81.858 166.400 C 83.318 166.400,85.044 163.882,85.971 160.400 C 94.313 129.047,142.597 123.128,168.430 150.292 C 176.151 158.411,180.097 164.622,181.611 171.037 L 182.469 174.674 181.505 178.681 C 179.865 185.500,180.123 185.649,193.037 185.334 C 201.726 185.122,202.503 185.164,208.049 186.164 C 216.241 187.641,216.602 187.451,217.191 181.354 C 218.580 166.970,235.579 149.929,254.800 143.652 C 278.505 135.909,297.047 141.983,304.457 159.917 C 306.624 165.162,306.820 165.330,311.105 165.638 C 317.107 166.068,328.204 170.244,333.868 174.204 C 335.312 175.213,336.995 176.139,337.607 176.261 L 338.721 176.484 338.993 182.142 C 340.373 210.856,332.961 239.317,316.776 267.458 C 289.185 315.429,246.068 333.589,179.800 325.151 C 158.802 322.477,143.017 317.104,129.200 307.926 C 126.450 306.100,124.020 304.485,123.800 304.339 C 123.544 304.169,123.401 305.311,123.403 307.520 L 123.405 310.966 127.003 313.314 C 144.090 324.468,165.793 330.410,196.800 332.426 C 239.355 335.193,273.436 324.461,299.112 300.208 C 303.358 296.198,303.518 295.959,304.013 292.919 C 304.765 288.300,307.704 283.385,310.600 281.903 C 311.480 281.453,312.740 280.681,313.400 280.189 C 314.060 279.696,315.003 279.170,315.497 279.021 C 316.108 278.835,317.505 276.880,319.889 272.874 C 321.812 269.643,323.539 266.890,323.727 266.755 C 323.915 266.621,324.017 266.441,323.954 266.355 C 323.891 266.270,325.025 263.860,326.474 261.000 C 334.477 245.206,341.320 225.347,342.600 214.200 C 342.701 213.320,342.964 211.340,343.184 209.800 C 345.510 193.506,345.081 175.656,342.297 172.935 C 341.390 172.049,336.278 168.792,332.595 166.753 C 328.041 164.232,317.138 160.529,312.842 160.044 C 311.538 159.896,310.556 159.563,310.361 159.200 C 310.184 158.870,309.337 157.070,308.481 155.200 C 300.176 137.064,279.346 130.384,254.413 137.863 C 233.951 144.000,213.275 163.774,211.749 178.664 C 211.567 180.444,211.335 181.184,210.999 181.055 C 208.569 180.122,201.874 179.547,194.853 179.668 L 187.163 179.800 187.386 178.910 C 189.579 170.191,184.531 159.114,172.612 146.492 C 160.085 133.227,139.480 125.305,122.500 127.225 M281.590 161.892 C 275.927 165.859,263.014 173.226,264.727 171.513 C 265.531 170.709,265.285 168.620,264.274 167.670 C 262.885 166.365,261.444 166.563,259.491 168.329 C 258.561 169.170,254.740 172.297,251.000 175.277 C 247.260 178.258,241.050 183.390,237.200 186.682 C 233.350 189.974,227.860 194.551,225.000 196.854 C 222.140 199.157,219.582 201.492,219.315 202.044 C 219.048 202.596,217.295 204.264,215.419 205.751 C 210.572 209.592,209.930 210.786,211.586 212.891 C 212.268 213.759,212.309 214.058,211.892 215.161 C 210.844 217.939,212.849 219.567,216.470 218.876 C 217.862 218.610,228.270 217.942,239.600 217.391 C 278.645 215.492,285.600 214.393,285.600 210.120 C 285.600 207.256,283.697 206.714,275.321 207.193 C 269.994 207.498,264.895 207.448,254.057 206.984 C 246.216 206.648,237.010 206.398,233.600 206.427 C 222.721 206.520,222.687 206.567,242.200 195.003 C 265.100 181.433,285.645 167.775,286.725 165.404 C 288.146 162.287,284.543 159.824,281.590 161.892 M109.695 164.090 C 109.197 164.330,108.638 165.083,108.453 165.763 C 108.248 166.515,107.897 166.948,107.558 166.866 C 102.825 165.733,98.522 168.625,100.663 171.501 C 101.381 172.465,101.823 172.627,104.263 172.820 C 110.549 173.317,137.569 189.512,159.200 205.746 L 166.200 211.000 161.000 211.265 C 158.140 211.411,151.480 211.739,146.200 211.994 C 133.517 212.607,125.685 213.335,113.341 215.046 C 107.085 215.914,109.335 221.439,115.800 221.086 C 117.780 220.978,124.980 221.156,131.800 221.481 C 139.878 221.867,149.589 222.019,159.660 221.918 L 175.120 221.764 176.682 220.682 C 177.540 220.087,178.427 219.600,178.652 219.600 C 179.609 219.600,180.800 217.718,180.800 216.205 C 180.800 210.985,146.957 182.858,126.692 171.237 C 115.252 164.677,111.635 163.155,109.695 164.090 M320.769 205.437 C 319.774 206.636,320.217 208.580,322.678 213.814 C 324.020 216.666,325.780 220.530,326.590 222.400 C 328.968 227.892,331.459 229.321,333.127 226.151 C 333.798 224.876,333.800 224.882,327.698 211.800 C 324.361 204.647,322.695 203.117,320.769 205.437 M308.262 207.131 C 307.154 208.356,307.501 210.081,309.798 214.760 C 311.007 217.224,313.009 221.615,314.248 224.519 C 319.455 236.734,321.496 239.304,324.000 236.800 C 325.136 235.664,324.998 234.390,323.427 231.514 C 322.672 230.131,320.582 225.580,318.782 221.400 C 312.427 206.645,310.755 204.376,308.262 207.131 M295.670 208.926 C 294.540 210.128,294.573 211.086,295.849 214.112 C 296.425 215.480,298.469 220.650,300.391 225.600 C 305.519 238.813,306.317 240.109,308.920 239.456 C 310.896 238.960,311.043 237.281,309.431 233.615 C 308.642 231.821,306.561 226.629,304.807 222.077 C 300.317 210.423,299.743 209.093,298.950 208.514 C 297.888 207.738,296.639 207.894,295.670 208.926 M90.731 208.815 C 89.269 209.668,89.450 211.323,91.549 216.279 C 92.650 218.880,94.901 224.565,96.552 228.913 C 101.681 242.424,103.599 245.518,106.266 244.580 C 108.458 243.809,108.396 242.563,105.908 237.315 C 104.678 234.722,102.561 229.630,101.203 226.000 C 94.795 208.875,93.702 207.081,90.731 208.815 M77.578 209.938 C 76.369 210.916,76.404 212.588,77.675 214.602 C 79.050 216.783,80.892 221.067,84.762 231.088 C 90.667 246.377,90.740 246.503,93.341 245.850 C 96.107 245.156,96.100 245.124,90.030 229.600 C 82.543 210.453,80.644 207.455,77.578 209.938 M74.000 222.684 C 70.904 223.822,71.535 227.386,76.531 236.968 C 79.612 242.877,81.597 244.403,83.600 242.400 C 84.777 241.223,84.598 240.209,82.622 236.835 C 80.399 233.041,78.141 228.113,77.550 225.768 C 77.286 224.719,76.685 223.653,76.096 223.190 C 75.036 222.356,74.949 222.335,74.000 222.684 M170.739 241.210 C 170.376 241.422,169.539 242.542,168.880 243.698 C 167.358 246.365,164.362 249.943,154.111 261.334 L 145.892 270.469 144.446 270.213 C 141.141 269.628,133.707 264.300,130.774 260.415 C 127.824 256.506,126.133 255.831,124.182 257.782 C 122.072 259.891,123.203 262.149,129.045 267.495 C 134.893 272.845,136.872 274.180,141.137 275.647 C 142.351 276.065,143.654 276.687,144.033 277.030 C 146.311 279.091,150.399 275.300,167.900 254.900 C 172.489 249.550,171.729 249.701,174.712 253.549 C 181.601 262.437,188.164 267.238,198.855 271.211 C 200.536 271.836,202.394 272.830,202.985 273.421 C 203.874 274.310,204.301 274.456,205.465 274.267 C 209.894 273.548,223.394 262.164,230.600 253.071 C 233.470 249.449,233.324 249.485,234.700 252.053 C 238.776 259.660,243.060 264.130,249.121 267.103 C 251.284 268.165,253.481 269.431,254.003 269.917 C 256.083 271.855,257.510 271.229,265.600 264.830 C 268.570 262.480,272.627 259.277,274.615 257.712 C 280.033 253.445,282.000 251.199,282.000 249.279 C 282.000 245.765,278.957 245.210,276.067 248.196 C 271.685 252.725,256.362 264.489,255.659 263.864 C 255.297 263.542,253.784 262.708,252.298 262.010 C 246.790 259.422,243.824 256.177,239.400 247.894 C 235.148 239.933,233.668 239.961,226.833 248.135 C 220.097 256.191,212.574 263.319,207.656 266.308 C 201.865 269.827,179.471 254.163,175.002 243.467 C 174.070 241.236,172.300 240.299,170.739 241.210 " stroke="none" fill="#060505" fill-rule="evenodd"></path><path id="path3" d="M60.800 71.116 C 49.502 74.850,58.500 97.844,77.171 112.953 C 86.291 120.332,87.627 120.321,95.202 112.800 C 108.148 99.946,113.406 82.135,105.052 79.430 C 100.763 78.042,91.958 84.958,87.800 92.981 C 86.920 94.679,86.077 96.147,85.926 96.242 C 85.560 96.473,82.505 92.087,80.603 88.600 C 74.013 76.515,65.964 69.409,60.800 71.116 M267.969 90.711 C 263.372 94.819,266.857 115.605,272.141 115.599 C 276.481 115.593,291.382 99.089,291.382 94.288 C 291.382 89.517,286.390 90.017,280.911 95.338 C 279.542 96.668,278.372 97.675,278.311 97.578 C 278.250 97.480,277.766 96.537,277.235 95.482 C 275.951 92.930,273.608 90.649,271.677 90.070 C 269.523 89.425,269.381 89.450,267.969 90.711 M148.586 102.781 C 145.187 104.158,146.798 109.761,153.137 118.608 C 158.441 126.011,160.894 126.240,167.273 119.928 C 174.392 112.884,176.890 105.115,172.728 102.963 C 169.328 101.205,164.632 104.222,161.321 110.292 L 159.743 113.185 157.773 110.492 C 155.151 106.911,153.328 104.907,151.440 103.534 C 149.737 102.296,149.764 102.303,148.586 102.781 M347.991 140.762 C 343.171 145.828,343.884 178.048,348.988 185.838 C 352.525 191.236,370.861 186.209,379.876 177.370 C 391.337 166.132,376.888 158.744,362.406 168.437 C 359.721 170.234,360.007 170.565,359.551 165.132 C 358.203 149.071,356.003 141.288,352.403 139.848 C 350.092 138.923,349.653 139.014,347.991 140.762 M51.194 170.900 C 49.371 172.140,47.581 175.582,46.440 180.045 C 45.912 182.110,45.423 183.869,45.353 183.954 C 45.283 184.038,43.765 182.733,41.980 181.054 C 38.374 177.661,37.414 177.350,35.734 179.029 C 34.368 180.395,34.624 181.951,36.854 185.849 C 43.509 197.481,50.214 200.013,52.892 191.906 C 55.807 183.085,57.406 174.280,56.427 172.451 C 55.267 170.283,53.063 169.630,51.194 170.900 M311.899 281.346 C 305.366 283.784,304.246 289.404,306.230 309.800 C 306.551 313.100,306.703 316.718,306.568 317.841 C 306.192 320.968,309.301 322.805,311.896 320.988 C 312.647 320.462,313.479 320.434,317.843 320.788 C 340.123 322.597,347.600 318.932,347.600 306.201 C 347.600 299.399,338.331 295.577,330.138 299.000 C 329.348 299.330,328.660 299.600,328.609 299.600 C 328.557 299.600,328.417 297.755,328.298 295.500 C 327.743 285.014,319.994 278.326,311.899 281.346 M109.653 294.617 C 106.934 296.905,105.683 301.018,105.257 309.068 L 105.000 313.937 102.475 312.417 C 92.351 306.320,75.967 308.444,76.009 315.847 C 76.043 321.857,86.071 330.662,95.597 333.046 C 104.278 335.219,115.170 330.956,116.997 324.670 C 121.945 307.650,117.207 288.261,109.653 294.617 M240.705 344.626 C 234.842 347.807,240.249 363.200,247.229 363.200 C 247.480 363.200,248.219 363.650,248.873 364.200 C 251.109 366.081,253.698 364.784,259.600 358.827 C 265.217 353.157,267.055 348.365,264.568 345.877 C 261.882 343.191,257.671 344.967,254.000 350.335 C 252.258 352.882,252.731 353.013,249.009 348.947 C 244.961 344.523,242.885 343.443,240.705 344.626 " stroke="none" fill="#eb3b24" fill-rule="evenodd"></path><path id="path4" d="M62.500 71.076 C 62.885 71.176,63.515 71.176,63.900 71.076 C 64.285 70.975,63.970 70.893,63.200 70.893 C 62.430 70.893,62.115 70.975,62.500 71.076 M71.400 75.600 C 72.259 76.480,73.052 77.200,73.162 77.200 C 73.272 77.200,72.659 76.480,71.800 75.600 C 70.941 74.720,70.148 74.000,70.038 74.000 C 69.928 74.000,70.541 74.720,71.400 75.600 M109.320 86.000 C 109.320 87.210,109.395 87.705,109.487 87.100 C 109.578 86.495,109.578 85.505,109.487 84.900 C 109.395 84.295,109.320 84.790,109.320 86.000 M288.265 91.172 C 289.181 91.322,290.180 91.615,290.484 91.822 C 290.789 92.030,290.694 91.885,290.275 91.500 C 289.809 91.073,288.943 90.820,288.056 90.850 L 286.600 90.900 288.265 91.172 M279.814 95.986 C 279.189 96.638,278.525 97.077,278.339 96.962 C 278.152 96.847,278.000 96.943,278.000 97.176 C 278.000 97.930,278.614 97.630,280.000 96.200 C 280.746 95.430,281.265 94.800,281.153 94.800 C 281.041 94.800,280.438 95.334,279.814 95.986 M172.033 102.521 C 172.125 102.588,172.740 102.958,173.400 103.345 L 174.600 104.047 173.656 103.224 C 173.136 102.771,172.521 102.400,172.289 102.400 C 172.057 102.400,171.942 102.454,172.033 102.521 M280.848 109.351 C 278.985 111.231,278.462 111.985,278.860 112.216 C 279.157 112.388,279.260 112.374,279.089 112.186 C 278.918 111.998,279.902 110.709,281.277 109.322 C 282.652 107.935,283.687 106.800,283.577 106.800 C 283.467 106.800,282.239 107.948,280.848 109.351 M95.442 112.756 C 94.594 113.641,94.459 113.985,94.867 114.220 C 95.160 114.390,95.262 114.377,95.094 114.192 C 94.926 114.007,95.275 113.348,95.869 112.728 C 96.463 112.107,96.860 111.600,96.750 111.600 C 96.640 111.600,96.051 112.120,95.442 112.756 M42.587 181.500 C 44.967 183.991,45.600 184.419,45.600 183.533 C 45.600 183.277,45.475 183.192,45.323 183.344 C 45.170 183.497,43.955 182.582,42.623 181.311 L 40.200 179.000 42.587 181.500 M159.700 222.276 C 160.085 222.376,160.715 222.376,161.100 222.276 C 161.485 222.175,161.170 222.093,160.400 222.093 C 159.630 222.093,159.315 222.175,159.700 222.276 M314.700 280.682 C 315.195 280.778,316.005 280.778,316.500 280.682 C 316.995 280.587,316.590 280.509,315.600 280.509 C 314.610 280.509,314.205 280.587,314.700 280.682 M328.493 296.400 C 328.493 297.170,328.575 297.485,328.676 297.100 C 328.776 296.715,328.776 296.085,328.676 295.700 C 328.575 295.315,328.493 295.630,328.493 296.400 M344.400 299.725 C 344.400 299.794,344.985 300.379,345.700 301.025 L 347.000 302.200 345.825 300.900 C 344.730 299.688,344.400 299.416,344.400 299.725 M347.701 306.200 C 347.705 307.080,347.787 307.393,347.883 306.895 C 347.979 306.398,347.975 305.678,347.875 305.295 C 347.775 304.913,347.696 305.320,347.701 306.200 M119.324 309.400 C 119.326 310.720,119.401 311.212,119.490 310.493 C 119.579 309.774,119.577 308.694,119.486 308.093 C 119.395 307.492,119.322 308.080,119.324 309.400 M104.920 312.000 C 104.920 313.210,104.995 313.705,105.087 313.100 C 105.178 312.495,105.178 311.505,105.087 310.900 C 104.995 310.295,104.920 310.790,104.920 312.000 M261.300 344.676 C 261.685 344.776,262.315 344.776,262.700 344.676 C 263.085 344.575,262.770 344.493,262.000 344.493 C 261.230 344.493,260.915 344.575,261.300 344.676 M247.183 346.900 C 248.164 347.945,249.019 348.800,249.083 348.800 C 249.384 348.800,249.066 348.441,247.300 346.783 L 245.400 345.000 247.183 346.900 M265.701 348.600 C 265.705 349.480,265.787 349.793,265.883 349.295 C 265.979 348.798,265.975 348.078,265.875 347.695 C 265.775 347.313,265.696 347.720,265.701 348.600 M259.578 359.100 L 258.200 360.600 259.700 359.222 C 261.096 357.938,261.384 357.600,261.078 357.600 C 261.012 357.600,260.337 358.275,259.578 359.100 " stroke="none" fill="#807f88" fill-rule="evenodd"></path><path id="path5" d="M227.375 161.700 L 226.200 163.000 227.500 161.825 C 228.215 161.179,228.800 160.594,228.800 160.525 C 228.800 160.216,228.470 160.488,227.375 161.700 M108.187 165.400 C 108.084 165.730,107.912 166.279,107.805 166.621 C 107.697 166.962,107.766 167.145,107.957 167.027 C 108.148 166.909,108.391 166.359,108.497 165.806 C 108.706 164.713,108.490 164.430,108.187 165.400 M258.778 168.700 L 257.400 170.200 258.900 168.822 C 260.296 167.538,260.584 167.200,260.278 167.200 C 260.212 167.200,259.537 167.875,258.778 168.700 M61.701 180.200 C 61.705 181.080,61.787 181.393,61.883 180.895 C 61.979 180.398,61.975 179.678,61.875 179.295 C 61.775 178.913,61.696 179.320,61.701 180.200 M217.314 180.600 C 217.317 181.700,217.395 182.103,217.487 181.495 C 217.579 180.886,217.577 179.986,217.482 179.495 C 217.387 179.003,217.311 179.500,217.314 180.600 M338.955 187.000 C 338.956 189.860,339.020 190.978,339.097 189.483 C 339.174 187.989,339.174 185.649,339.096 184.283 C 339.018 182.918,338.955 184.140,338.955 187.000 M185.300 185.876 C 185.685 185.976,186.315 185.976,186.700 185.876 C 187.085 185.775,186.770 185.693,186.000 185.693 C 185.230 185.693,184.915 185.775,185.300 185.876 M216.183 186.028 C 216.037 186.263,215.532 186.612,215.059 186.803 C 214.473 187.039,214.403 187.157,214.838 187.175 C 215.189 187.189,215.802 186.840,216.200 186.400 C 216.598 185.960,216.817 185.600,216.686 185.600 C 216.554 185.600,216.328 185.793,216.183 186.028 M61.701 196.200 C 61.705 197.080,61.787 197.393,61.883 196.895 C 61.979 196.398,61.975 195.678,61.875 195.295 C 61.775 194.913,61.696 195.320,61.701 196.200 M344.109 200.800 C 344.109 201.790,344.187 202.195,344.282 201.700 C 344.378 201.205,344.378 200.395,344.282 199.900 C 344.187 199.405,344.109 199.810,344.109 200.800 M174.600 208.400 C 177.454 211.260,179.878 213.600,179.988 213.600 C 180.098 213.600,177.854 211.260,175.000 208.400 C 172.146 205.540,169.722 203.200,169.612 203.200 C 169.502 203.200,171.746 205.540,174.600 208.400 M343.693 205.600 C 343.693 206.370,343.775 206.685,343.876 206.300 C 343.976 205.915,343.976 205.285,343.876 204.900 C 343.775 204.515,343.693 204.830,343.693 205.600 M245.507 206.690 C 246.226 206.779,247.306 206.777,247.907 206.686 C 248.508 206.595,247.920 206.522,246.600 206.524 C 245.280 206.526,244.788 206.601,245.507 206.690 M254.700 207.082 C 255.195 207.178,256.005 207.178,256.500 207.082 C 256.995 206.987,256.590 206.909,255.600 206.909 C 254.610 206.909,254.205 206.987,254.700 207.082 M266.112 207.495 C 267.164 207.577,268.784 207.576,269.712 207.492 C 270.640 207.408,269.780 207.341,267.800 207.342 C 265.820 207.343,265.060 207.412,266.112 207.495 M91.045 208.328 C 90.933 208.508,91.373 208.577,92.021 208.482 C 92.670 208.387,93.200 208.240,93.200 208.155 C 93.200 207.850,91.243 208.007,91.045 208.328 M155.507 211.490 C 156.226 211.579,157.306 211.577,157.907 211.486 C 158.508 211.395,157.920 211.322,156.600 211.324 C 155.280 211.326,154.788 211.401,155.507 211.490 M146.905 211.887 C 147.514 211.979,148.414 211.977,148.905 211.882 C 149.397 211.787,148.900 211.711,147.800 211.714 C 146.700 211.717,146.297 211.795,146.905 211.887 M139.505 212.283 C 140.002 212.379,140.722 212.375,141.105 212.275 C 141.487 212.175,141.080 212.096,140.200 212.101 C 139.320 212.105,139.007 212.187,139.505 212.283 M210.800 212.297 C 210.800 212.520,211.074 212.929,211.409 213.207 C 211.774 213.511,211.927 214.050,211.790 214.556 C 211.586 215.309,211.610 215.324,212.005 214.693 C 212.354 214.136,212.274 213.765,211.624 212.939 C 211.171 212.363,210.800 212.074,210.800 212.297 M133.300 212.676 C 133.685 212.776,134.315 212.776,134.700 212.676 C 135.085 212.575,134.770 212.493,134.000 212.493 C 133.230 212.493,132.915 212.575,133.300 212.676 M180.893 216.400 C 180.893 217.170,180.975 217.485,181.076 217.100 C 181.176 216.715,181.176 216.085,181.076 215.700 C 180.975 215.315,180.893 215.630,180.893 216.400 M256.705 216.683 C 257.202 216.779,257.922 216.775,258.305 216.675 C 258.687 216.575,258.280 216.496,257.400 216.501 C 256.520 216.505,256.207 216.587,256.705 216.683 M248.905 217.087 C 249.514 217.179,250.414 217.177,250.905 217.082 C 251.397 216.987,250.900 216.911,249.800 216.914 C 248.700 216.917,248.297 216.995,248.905 217.087 M240.905 217.487 C 241.514 217.579,242.414 217.577,242.905 217.482 C 243.397 217.387,242.900 217.311,241.800 217.314 C 240.700 217.317,240.297 217.395,240.905 217.487 M232.505 217.887 C 233.114 217.979,234.014 217.977,234.505 217.882 C 234.997 217.787,234.500 217.711,233.400 217.714 C 232.300 217.717,231.897 217.795,232.505 217.887 M223.900 218.282 C 224.395 218.378,225.205 218.378,225.700 218.282 C 226.195 218.187,225.790 218.109,224.800 218.109 C 223.810 218.109,223.405 218.187,223.900 218.282 M119.107 221.090 C 119.826 221.179,120.906 221.177,121.507 221.086 C 122.108 220.995,121.520 220.922,120.200 220.924 C 118.880 220.926,118.388 221.001,119.107 221.090 M113.100 221.482 C 113.595 221.578,114.405 221.578,114.900 221.482 C 115.395 221.387,114.990 221.309,114.000 221.309 C 113.010 221.309,112.605 221.387,113.100 221.482 M128.900 221.476 C 129.285 221.576,129.915 221.576,130.300 221.476 C 130.685 221.375,130.370 221.293,129.600 221.293 C 128.830 221.293,128.515 221.375,128.900 221.476 M137.100 221.882 C 137.595 221.978,138.405 221.978,138.900 221.882 C 139.395 221.787,138.990 221.709,138.000 221.709 C 137.010 221.709,136.605 221.787,137.100 221.882 M170.700 221.882 C 171.195 221.978,172.005 221.978,172.500 221.882 C 172.995 221.787,172.590 221.709,171.600 221.709 C 170.610 221.709,170.205 221.787,170.700 221.882 M154.900 222.291 C 155.725 222.378,157.075 222.378,157.900 222.291 C 158.725 222.205,158.050 222.134,156.400 222.134 C 154.750 222.134,154.075 222.205,154.900 222.291 M331.000 227.600 L 329.800 227.905 330.876 227.953 C 331.468 227.979,332.064 227.820,332.200 227.600 C 332.336 227.380,332.392 227.221,332.324 227.247 C 332.256 227.273,331.660 227.432,331.000 227.600 M169.798 241.602 C 168.775 242.732,169.210 242.837,170.286 241.720 C 170.773 241.214,171.026 240.800,170.848 240.800 C 170.670 240.800,170.197 241.161,169.798 241.602 M93.200 245.825 C 92.234 246.191,92.055 246.362,92.624 246.377 C 93.076 246.390,93.796 246.136,94.224 245.813 C 95.135 245.123,95.053 245.124,93.200 245.825 M221.978 253.500 L 220.600 255.000 222.100 253.622 C 222.925 252.863,223.600 252.188,223.600 252.122 C 223.600 251.816,223.262 252.104,221.978 253.500 M279.578 253.500 L 278.200 255.000 279.700 253.622 C 280.525 252.863,281.200 252.188,281.200 252.122 C 281.200 251.816,280.862 252.104,279.578 253.500 M158.575 256.100 L 157.400 257.400 158.700 256.225 C 159.912 255.130,160.184 254.800,159.875 254.800 C 159.806 254.800,159.221 255.385,158.575 256.100 M245.800 257.600 C 246.659 258.480,247.452 259.200,247.562 259.200 C 247.672 259.200,247.059 258.480,246.200 257.600 C 245.341 256.720,244.548 256.000,244.438 256.000 C 244.328 256.000,244.941 256.720,245.800 257.600 M226.378 257.900 L 225.000 259.400 226.500 258.022 C 227.896 256.738,228.184 256.400,227.878 256.400 C 227.812 256.400,227.137 257.075,226.378 257.900 M154.975 260.100 L 153.800 261.400 155.100 260.225 C 156.312 259.130,156.584 258.800,156.275 258.800 C 156.206 258.800,155.621 259.385,154.975 260.100 M215.375 260.100 L 214.200 261.400 215.500 260.225 C 216.215 259.579,216.800 258.994,216.800 258.925 C 216.800 258.616,216.470 258.888,215.375 260.100 M162.975 260.500 L 161.800 261.800 163.100 260.625 C 164.312 259.530,164.584 259.200,164.275 259.200 C 164.206 259.200,163.621 259.785,162.975 260.500 M132.200 262.000 C 133.506 263.320,134.665 264.400,134.775 264.400 C 134.885 264.400,133.906 263.320,132.600 262.000 C 131.294 260.680,130.135 259.600,130.025 259.600 C 129.915 259.600,130.894 260.680,132.200 262.000 M241.400 262.000 C 242.483 263.100,243.460 264.000,243.570 264.000 C 243.680 264.000,242.883 263.100,241.800 262.000 C 240.717 260.900,239.740 260.000,239.630 260.000 C 239.520 260.000,240.317 260.900,241.400 262.000 M151.375 264.100 L 150.200 265.400 151.500 264.225 C 152.712 263.130,152.984 262.800,152.675 262.800 C 152.606 262.800,152.021 263.385,151.375 264.100 M159.375 264.500 L 158.200 265.800 159.500 264.625 C 160.712 263.530,160.984 263.200,160.675 263.200 C 160.606 263.200,160.021 263.785,159.375 264.500 M219.775 264.500 L 218.600 265.800 219.900 264.625 C 220.615 263.979,221.200 263.394,221.200 263.325 C 221.200 263.016,220.870 263.288,219.775 264.500 M155.775 268.500 L 154.600 269.800 155.900 268.625 C 157.112 267.530,157.384 267.200,157.075 267.200 C 157.006 267.200,156.421 267.785,155.775 268.500 M148.575 276.500 L 147.400 277.800 148.700 276.625 C 149.912 275.530,150.184 275.200,149.875 275.200 C 149.806 275.200,149.221 275.785,148.575 276.500 M93.600 283.325 C 93.600 283.394,94.185 283.979,94.900 284.625 L 96.200 285.800 95.025 284.500 C 93.930 283.288,93.600 283.016,93.600 283.325 M98.200 288.400 C 99.283 289.500,100.260 290.400,100.370 290.400 C 100.480 290.400,99.683 289.500,98.600 288.400 C 97.517 287.300,96.540 286.400,96.430 286.400 C 96.320 286.400,97.117 287.300,98.200 288.400 M295.791 295.300 L 292.600 298.600 295.900 295.409 C 298.965 292.446,299.382 292.000,299.091 292.000 C 299.030 292.000,297.545 293.485,295.791 295.300 M123.324 307.000 C 123.326 308.320,123.401 308.812,123.490 308.093 C 123.579 307.374,123.577 306.294,123.486 305.693 C 123.395 305.092,123.322 305.680,123.324 307.000 M194.500 326.676 C 194.885 326.776,195.515 326.776,195.900 326.676 C 196.285 326.575,195.970 326.493,195.200 326.493 C 194.430 326.493,194.115 326.575,194.500 326.676 M201.305 327.087 C 201.914 327.179,202.814 327.177,203.305 327.082 C 203.797 326.987,203.300 326.911,202.200 326.914 C 201.100 326.917,200.697 326.995,201.305 327.087 M217.900 327.082 C 218.395 327.178,219.205 327.178,219.700 327.082 C 220.195 326.987,219.790 326.909,218.800 326.909 C 217.810 326.909,217.405 326.987,217.900 327.082 " stroke="none" fill="#32584b" fill-rule="evenodd"></path><path id="path6" d="M230.378 158.700 L 229.000 160.200 230.500 158.822 C 231.896 157.538,232.184 157.200,231.878 157.200 C 231.812 157.200,231.137 157.875,230.378 158.700 M148.300 222.282 C 148.795 222.378,149.605 222.378,150.100 222.282 C 150.595 222.187,150.190 222.109,149.200 222.109 C 148.210 222.109,147.805 222.187,148.300 222.282 M162.305 222.283 C 162.802 222.379,163.522 222.375,163.905 222.275 C 164.287 222.175,163.880 222.096,163.000 222.101 C 162.120 222.105,161.807 222.187,162.305 222.283 M218.575 256.900 L 217.400 258.200 218.700 257.025 C 219.912 255.930,220.184 255.600,219.875 255.600 C 219.806 255.600,219.221 256.185,218.575 256.900 " stroke="none" fill="#78ab8b" fill-rule="evenodd"></path><path id="path7" d="M315.900 185.482 C 316.395 185.578,317.205 185.578,317.700 185.482 C 318.195 185.387,317.790 185.309,316.800 185.309 C 315.810 185.309,315.405 185.387,315.900 185.482 M97.507 198.690 C 98.226 198.779,99.306 198.777,99.907 198.686 C 100.508 198.595,99.920 198.522,98.600 198.524 C 97.280 198.526,96.788 198.601,97.507 198.690 M92.705 199.083 C 93.202 199.179,93.922 199.175,94.305 199.075 C 94.687 198.975,94.280 198.896,93.400 198.901 C 92.520 198.905,92.207 198.987,92.705 199.083 M68.400 206.600 C 67.428 207.590,66.723 208.400,66.833 208.400 C 66.943 208.400,67.828 207.590,68.800 206.600 C 69.772 205.610,70.477 204.800,70.367 204.800 C 70.257 204.800,69.372 205.610,68.400 206.600 M122.433 205.749 C 122.845 206.117,125.200 207.200,125.200 207.021 C 125.200 206.790,122.982 205.600,122.553 205.600 C 122.396 205.600,122.342 205.667,122.433 205.749 M142.585 223.500 C 143.202 224.435,143.783 225.200,143.876 225.200 C 144.164 225.200,142.633 222.766,142.032 222.269 C 141.720 222.011,141.968 222.565,142.585 223.500 M145.078 227.795 C 145.444 228.562,145.814 229.119,145.901 229.032 C 146.084 228.849,144.870 226.400,144.596 226.400 C 144.495 226.400,144.712 227.028,145.078 227.795 M262.893 228.800 C 262.893 229.570,262.975 229.885,263.076 229.500 C 263.176 229.115,263.176 228.485,263.076 228.100 C 262.975 227.715,262.893 228.030,262.893 228.800 M262.537 235.400 C 262.539 237.160,262.609 237.830,262.693 236.889 C 262.778 235.949,262.777 234.509,262.691 233.689 C 262.605 232.870,262.536 233.640,262.537 235.400 M148.101 240.200 C 148.105 241.080,148.187 241.393,148.283 240.895 C 148.379 240.398,148.375 239.678,148.275 239.295 C 148.175 238.913,148.096 239.320,148.101 240.200 M148.557 248.400 C 148.557 251.370,148.620 252.585,148.697 251.100 C 148.774 249.615,148.774 247.185,148.697 245.700 C 148.620 244.215,148.557 245.430,148.557 248.400 M276.000 268.925 C 276.000 268.994,276.585 269.579,277.300 270.225 L 278.600 271.400 277.425 270.100 C 276.330 268.888,276.000 268.616,276.000 268.925 M284.400 275.397 C 284.400 275.668,287.649 277.284,287.830 277.103 C 287.914 277.019,287.176 276.559,286.191 276.081 C 285.206 275.602,284.400 275.294,284.400 275.397 " stroke="none" fill="#c8b073" fill-rule="evenodd"></path><path id="path8" d="M63.926 69.214 C 61.809 70.332,61.787 70.662,63.810 70.939 C 69.032 71.655,75.014 77.995,81.349 89.528 C 82.354 91.358,83.750 93.579,84.450 94.463 L 85.723 96.070 87.042 93.935 C 88.229 92.014,88.304 91.720,87.793 91.000 C 87.481 90.560,86.393 88.703,85.377 86.872 C 77.356 72.434,69.724 66.152,63.926 69.214 M107.000 76.665 C 105.540 76.993,103.816 77.737,102.519 78.598 L 101.237 79.448 103.555 79.281 C 114.093 78.518,109.474 98.574,95.913 112.461 C 93.177 115.264,93.096 115.498,95.473 113.741 C 96.174 113.223,96.899 112.800,97.086 112.800 C 98.190 112.800,104.685 105.026,107.569 100.252 C 115.607 86.943,115.315 74.796,107.000 76.665 M271.932 88.344 L 270.651 89.489 272.093 89.965 C 273.765 90.517,276.364 93.178,277.604 95.607 L 278.464 97.294 279.932 95.948 C 280.740 95.208,281.550 94.487,281.734 94.347 C 281.918 94.207,281.758 93.486,281.379 92.746 C 278.796 87.698,274.760 85.817,271.932 88.344 M289.906 88.976 C 287.265 90.353,286.879 90.800,288.329 90.800 C 294.764 90.800,290.687 100.517,280.085 110.445 C 276.952 113.380,277.245 113.444,280.947 110.635 C 286.884 106.129,294.495 97.054,295.616 93.143 C 296.655 89.521,293.406 87.150,289.906 88.976 M173.400 100.015 C 172.740 100.219,171.660 100.833,171.000 101.379 L 169.800 102.371 171.318 102.386 C 177.176 102.441,175.669 111.426,168.484 119.288 C 167.228 120.663,166.650 121.473,167.200 121.089 C 167.750 120.706,168.830 119.969,169.600 119.453 C 179.429 112.864,182.491 97.199,173.400 100.015 M152.330 100.568 C 150.460 101.517,150.501 102.236,152.526 104.018 C 153.566 104.934,155.614 107.285,157.075 109.242 L 159.732 112.801 161.009 110.500 L 162.286 108.200 160.596 106.000 C 156.764 101.010,154.452 99.491,152.330 100.568 M352.306 137.967 L 351.000 139.134 352.056 139.400 C 355.911 140.367,358.056 147.396,359.622 164.200 C 360.200 170.396,359.905 169.907,362.152 168.390 C 364.336 166.916,364.338 166.901,363.390 158.400 C 361.323 139.879,357.681 133.165,352.306 137.967 M272.100 140.687 C 272.705 140.778,273.695 140.778,274.300 140.687 C 274.905 140.595,274.410 140.520,273.200 140.520 C 271.990 140.520,271.495 140.595,272.100 140.687 M377.000 161.483 C 374.549 161.802,366.400 165.092,366.400 165.763 C 366.400 165.846,367.757 165.484,369.415 164.958 C 382.568 160.781,389.116 168.440,380.100 177.456 L 377.496 180.059 380.509 178.035 C 392.611 169.905,390.455 159.733,377.000 161.483 M55.344 168.369 C 53.560 169.456,53.431 169.876,54.692 170.474 C 56.891 171.518,57.381 173.447,56.612 178.043 C 55.879 182.427,53.448 191.552,52.546 193.300 C 51.849 194.654,53.294 194.916,54.748 193.700 C 56.504 192.232,60.252 179.223,60.674 173.139 C 61.020 168.143,58.870 166.219,55.344 168.369 M39.782 176.582 C 38.767 177.596,38.507 178.400,39.193 178.400 C 39.408 178.400,40.833 179.577,42.359 181.017 C 43.884 182.456,45.214 183.491,45.313 183.317 C 45.413 183.142,45.724 182.024,46.004 180.831 L 46.513 178.661 44.872 177.131 C 42.884 175.277,41.262 175.102,39.782 176.582 M61.693 184.800 C 61.693 185.570,61.775 185.885,61.876 185.500 C 61.976 185.115,61.976 184.485,61.876 184.100 C 61.775 183.715,61.693 184.030,61.693 184.800 M198.100 185.476 C 198.485 185.576,199.115 185.576,199.500 185.476 C 199.885 185.375,199.570 185.293,198.800 185.293 C 198.030 185.293,197.715 185.375,198.100 185.476 M61.701 191.800 C 61.705 192.680,61.787 192.993,61.883 192.495 C 61.979 191.998,61.975 191.278,61.875 190.895 C 61.775 190.513,61.696 190.920,61.701 191.800 M236.300 206.289 C 237.015 206.378,238.185 206.378,238.900 206.289 C 239.615 206.201,239.030 206.128,237.600 206.128 C 236.170 206.128,235.585 206.201,236.300 206.289 M174.400 207.725 C 174.400 207.794,174.985 208.379,175.700 209.025 L 177.000 210.200 175.825 208.900 C 174.730 207.688,174.400 207.416,174.400 207.725 M145.505 222.283 C 146.002 222.379,146.722 222.375,147.105 222.275 C 147.487 222.175,147.080 222.096,146.200 222.101 C 145.320 222.105,145.007 222.187,145.505 222.283 M165.105 222.283 C 165.602 222.379,166.322 222.375,166.705 222.275 C 167.087 222.175,166.680 222.096,165.800 222.101 C 164.920 222.105,164.607 222.187,165.105 222.283 M179.600 259.800 C 180.346 260.570,181.047 261.200,181.157 261.200 C 181.267 261.200,180.746 260.570,180.000 259.800 C 179.254 259.030,178.553 258.400,178.443 258.400 C 178.333 258.400,178.854 259.030,179.600 259.800 M223.186 261.500 L 221.000 263.800 223.300 261.614 C 225.437 259.582,225.783 259.200,225.486 259.200 C 225.424 259.200,224.389 260.235,223.186 261.500 M315.797 279.046 C 313.090 280.464,312.796 280.815,314.551 280.531 C 322.322 279.269,330.008 288.904,328.543 298.069 L 328.285 299.680 329.442 299.094 C 336.288 295.626,346.048 298.309,347.634 304.095 C 348.472 307.155,346.812 313.972,344.653 316.333 C 343.533 317.558,344.443 317.366,346.654 315.912 C 351.139 312.963,353.514 303.443,350.765 299.431 C 348.117 295.566,339.663 293.870,334.300 296.128 L 332.800 296.759 332.797 294.680 C 332.780 282.924,323.930 274.785,315.797 279.046 M114.100 291.975 C 112.694 292.854,112.402 293.600,113.462 293.600 C 116.818 293.600,120.055 303.754,119.385 312.177 C 119.024 316.714,117.332 324.973,116.383 326.834 C 115.512 328.541,115.832 328.893,117.038 327.554 C 117.457 327.089,118.196 326.557,118.679 326.372 C 123.220 324.635,124.859 302.788,121.015 295.238 C 119.168 291.611,116.611 290.404,114.100 291.975 M91.400 306.250 C 86.584 306.871,83.976 307.706,81.829 309.315 C 81.157 309.819,81.414 309.819,83.829 309.315 C 90.147 307.996,97.224 309.048,102.160 312.039 L 104.600 313.518 104.841 311.459 C 105.049 309.684,104.966 309.304,104.241 308.701 C 102.374 307.148,95.142 305.768,91.400 306.250 M208.716 327.097 C 210.099 327.175,212.259 327.174,213.516 327.095 C 214.772 327.016,213.640 326.952,211.000 326.953 C 208.360 326.953,207.332 327.018,208.716 327.097 M244.500 342.396 C 242.830 343.414,242.854 344.114,244.579 344.738 C 245.440 345.049,247.112 346.507,249.028 348.618 C 252.631 352.586,252.305 352.483,253.934 350.173 L 255.222 348.345 252.511 345.520 C 248.756 341.607,246.949 340.902,244.500 342.396 M263.126 342.814 C 261.321 343.767,260.870 344.400,261.996 344.400 C 268.357 344.400,266.738 352.422,258.857 359.958 L 256.600 362.117 258.701 360.658 C 259.856 359.856,260.966 359.200,261.166 359.200 C 261.964 359.200,267.682 352.511,268.804 350.265 C 271.742 344.385,268.416 340.020,263.126 342.814 " stroke="none" fill="#64afa8" fill-rule="evenodd"></path></g></svg>